<svg xmlns="http://www.w3.org/2000/svg" id="smiling-little-kids-in-school-show-thumb-up-recommend-good-quality-education" viewBox="0 0 2745 1830">
  <defs>
    <clipPath id="clip-path">
      <path d="M260.65,1072.13c39.12,525.05,481.3,737,1102.38,737s1099.24-193.9,1124.56-788C2510.1,492.88,2247.21,20.91,1363,20.91,579,20.91,210.24,395.42,260.65,1072.13Z" style="fill:none"></path>
    </clipPath>
  </defs>
  <g style="clip-path:url(#clip-path)">
    <path d="M2748.31,1830H3.31V0h2745Z" style="fill:#eee"></path>
    <path d="M2412.39 1312.9H339.22a4.28 4.28 0 0 1 0-8.55H2412.39a4.28 4.28 0 0 1 0 8.55ZM2412.39 1377.23H339.22a4.28 4.28 0 0 1 0-8.55H2412.39a4.28 4.28 0 0 1 0 8.55ZM547.05 365.67a8 8 0 0 1-.72-4.52 5.06 5.06 0 0 1 2.66-3.54 6.61 6.61 0 0 1 4.67-.49 7.32 7.32 0 0 1 3.45 1.89 34.69 34.69 0 0 1 3 3.28l-.13 0c1.16 1.27 2.32 2.51 3.49 3.74a8.13 8.13 0 0 0 4.08 2.38 11.53 11.53 0 0 0 6-.11 13.66 13.66 0 0 0 5-2.79 18.4 18.4 0 0 0 3.8-4.64 20.74 20.74 0 0 0 2.3-5.8 7 7 0 0 0-.94-5.66 16.23 16.23 0 0 0-4.41-4.5 28.91 28.91 0 0 0-6-3.22 38.86 38.86 0 0 0-5.57-1.84A8.3 8.3 0 0 1 564 336.5a5.28 5.28 0 0 1-.51-3.66 5.21 5.21 0 0 1 2.22-3.09 8.06 8.06 0 0 1 4.92-1.25c1.41.15 3 .24 4.7.27a31.11 31.11 0 0 0 5.11-.31 18.07 18.07 0 0 0 4.75-1.35 10.67 10.67 0 0 0 3.68-2.69q2.36-5.44.07-8.22a12.43 12.43 0 0 0-7.07-3.89 35.19 35.19 0 0 0-6.21-.83 16.6 16.6 0 0 0-5.42.45 20.67 20.67 0 0 1-2.89 1 6.39 6.39 0 0 1-3-.09 6.13 6.13 0 0 1-3.86-2.73 7 7 0 0 1-.62-5.53 8.46 8.46 0 0 1 4.84-3.85 24 24 0 0 1 6.81-1.21 37.58 37.58 0 0 1 6.93.38c2.24.34 4 .64 5.17.92a36.41 36.41 0 0 1 8.73 3.18 21.88 21.88 0 0 1 6.52 5.06 16.58 16.58 0 0 1 3.57 7 18.59 18.59 0 0 1-.12 8.76q-.24 1-.69 2.7a12.71 12.71 0 0 1-1.71 3.55 17.54 17.54 0 0 1-3.61 3.8 22.85 22.85 0 0 1-6.38 3.43 28.42 28.42 0 0 1 6.67 9.44 18.21 18.21 0 0 1 1.07 11.83 22.36 22.36 0 0 1-4.58 9.22 33.48 33.48 0 0 1-8 7.08 31.18 31.18 0 0 1-9.66 4.09 21.26 21.26 0 0 1-9.77.12A23.38 23.38 0 0 1 555 374.59 54.84 54.84 0 0 1 547.05 365.67ZM615.49 367.77a8.64 8.64 0 0 1-4.42-3.27 5.15 5.15 0 0 1-.72-3.92 5.73 5.73 0 0 1 2.57-3.49q2.1-1.41 5.75-.71l12.93 3 4.22-18.23a7.19 7.19 0 0 1 3.29-3.6 6.57 6.57 0 0 1 4.31-.36 7 7 0 0 1 3.59 2.13 6.36 6.36 0 0 1 1.57 4.38l-4.31 18.61 16 3.72a8.26 8.26 0 0 1 3.65 3.36 5.42 5.42 0 0 1 .56 3.74 4.9 4.9 0 0 1-2.27 3 9.45 9.45 0 0 1-5 1.29l-15.65-3.62-4.28 18.49c-.6 2.22-1.67 3.67-3.19 4.36a7 7 0 0 1-4.61.5 6.7 6.7 0 0 1-3.81-2.38 6.54 6.54 0 0 1-1.18-4.9l4.41-19ZM715.17 342.64a16.85 16.85 0 0 0-10 .69 49.92 49.92 0 0 0-9.58 4.86 7.94 7.94 0 0 1-5.46.65 6.06 6.06 0 0 1-3.89-2.61 5.75 5.75 0 0 1-.71-4.59 8.08 8.08 0 0 1 2.26-3.84q3-2 6.54-3.86a45.45 45.45 0 0 1 7.18-3 34.45 34.45 0 0 1 7.5-1.53 24.16 24.16 0 0 1 7.58.53 19.33 19.33 0 0 1 7.61 3.6 20.2 20.2 0 0 1 5.39 6.43 24.48 24.48 0 0 1 2.64 8.58 28.59 28.59 0 0 1-.63 10.07 19.08 19.08 0 0 1-3.51 7.5 28.7 28.7 0 0 1-5.79 5.6 35.85 35.85 0 0 1-7.12 4q-3.86 1.63-7.54 2.82c-2 .64-3.89 1.32-5.79 2.06a29.92 29.92 0 0 0-5.48 2.82 22.69 22.69 0 0 0-4.89 4.32 23.58 23.58 0 0 0-3.81 6.47l22.88 5.3a4.4 4.4 0 0 0 2.09-.2 6.81 6.81 0 0 0 1.63-.85c.48-.34 1-.7 1.48-1.08a4.11 4.11 0 0 1 1.61-.79 5.64 5.64 0 0 1 1.8-.13 14.37 14.37 0 0 1 1.84.29 6.19 6.19 0 0 1 4.05 2.78 5.76 5.76 0 0 1 .8 4.48 5.29 5.29 0 0 1-.89 2.11 9.61 9.61 0 0 1-1.08 1.11 25.48 25.48 0 0 1-7.31 4.23 14.47 14.47 0 0 1-8.48.42l-30.38-7q-5.67-2-5-8c.91-2.78 2-5.47 3.09-8.07a48.14 48.14 0 0 1 4-7.31 34.19 34.19 0 0 1 5.32-6.19 28.88 28.88 0 0 1 7-4.71 20.34 20.34 0 0 1 3.52-1.36c1.52-.47 3.06-1 4.64-1.52 2-.63 4-1.28 6-1.95a26.29 26.29 0 0 0 5.65-2.64 18.42 18.42 0 0 0 4.52-3.93 13.79 13.79 0 0 0 2.7-5.78 11.18 11.18 0 0 0-.47-6.17A7.56 7.56 0 0 0 715.17 342.64ZM783.51 395.12l-33.61-7.79a11.75 11.75 0 0 1-5.73-2.9c-1.41-1.37-1.84-3.21-1.31-5.54a5.52 5.52 0 0 1 1.7-2.33 6.08 6.08 0 0 1 2.44-1.14 10.71 10.71 0 0 1 2.85-.22 15.73 15.73 0 0 1 2.77.36l33.62 7.79c3 1 5 2.24 6 3.84a4.76 4.76 0 0 1-2.24 7.65A10.06 10.06 0 0 1 783.51 395.12Zm-4.9 21.74L744.74 409a10.57 10.57 0 0 1-5.83-3.06 5.1 5.1 0 0 1-1.23-4.71 5 5 0 0 1 3.48-3.82 11.12 11.12 0 0 1 6.3-.18l33.87 7.85c2.91.77 4.92 1.91 6 3.44a5 5 0 0 1 1 4.46 5.87 5.87 0 0 1-3.19 3.48C783.47 417.36 781.28 417.48 778.61 416.86ZM799.42 427a7.48 7.48 0 0 1-1.26-5.74 5.3 5.3 0 0 1 2.66-3.54 6.63 6.63 0 0 1 5-.55 9.58 9.58 0 0 1 2.89 1.07 25 25 0 0 0 12.75 7.86 16 16 0 0 0 6 .24 15.82 15.82 0 0 0 5.63-2 15.06 15.06 0 0 0 4.47-4 16 16 0 0 0 2.68-6 10.89 10.89 0 0 0-.19-6.24 13.06 13.06 0 0 0-3-4.78 16.74 16.74 0 0 0-4.55-3.3 22.46 22.46 0 0 0-4.89-1.81 28.88 28.88 0 0 0-8.44-.6 4.11 4.11 0 0 0-.83.36 11.64 11.64 0 0 0-1.18.68 14.8 14.8 0 0 1-1.87 1 4.72 4.72 0 0 1-2.85-.05 6.92 6.92 0 0 1-4-2.48 7 7 0 0 1-1.13-5.37c.34-2.29.76-4.5 1.26-6.66s1-4.36 1.4-6.62l2.64-13.15a6 6 0 0 1-1-4.58 6.41 6.41 0 0 1 2.78-3.79 7 7 0 0 1 5.77-.77l2.52.58c1.16.27 2.54.57 4.15.9l5.33 1.09c2 .41 3.91.84 5.9 1.3 1.81.42 3.66.83 5.57 1.23L849 362.4c1.65.34 3 .64 4.22.91l2.39.56a8.44 8.44 0 0 1 3.9 3.42 5.53 5.53 0 0 1 .54 3.87 5.31 5.31 0 0 1-2.41 3.33 9.82 9.82 0 0 1-5.2 1.31c-2.35-.46-4.76-.94-7.23-1.47s-4.86-1.06-7.19-1.6-4.41-1-6.25-1.52-4-.89-6.44-1.28l-3 15.37a29.13 29.13 0 0 1 4.3.25c1.41.19 2.85.45 4.31.79a31.46 31.46 0 0 1 11.27 4.86 27.85 27.85 0 0 1 7.52 7.81 25.86 25.86 0 0 1 3.73 9.51 24.54 24.54 0 0 1-.24 9.82 23.87 23.87 0 0 1-4.24 8.9 29 29 0 0 1-7.79 7.18 31 31 0 0 1-10.36 4.14 27.55 27.55 0 0 1-11.93-.25A35.88 35.88 0 0 1 808.28 434 45 45 0 0 1 799.42 427ZM1323.79 223.54a71.66 71.66 0 0 0-7.91 14.09 63.89 63.89 0 0 0-4.53 16.31 30.42 30.42 0 0 1 22.51-7.19 22.77 22.77 0 0 1 8.57 2.58 20.07 20.07 0 0 1 6.69 5.94 25.27 25.27 0 0 1 4.05 9.28 29.78 29.78 0 0 1 .65 11 22 22 0 0 1-3.3 9 22.91 22.91 0 0 1-6.76 6.68 30.08 30.08 0 0 1-9.76 4 31.63 31.63 0 0 1-12.5.44 21.93 21.93 0 0 1-10.73-4.87 46.46 46.46 0 0 1-7.49-8.21 27.66 27.66 0 0 1-4.3-9.76 48.88 48.88 0 0 1-1.11-13.91 70.22 70.22 0 0 1 2.41-14.59 84.71 84.71 0 0 1 5.3-14.17 91 91 0 0 1 7.4-12.74 7.75 7.75 0 0 1 4.5-2.95 6.21 6.21 0 0 1 4.62.56 5.08 5.08 0 0 1 2.55 3.36 8.2 8.2 0 0 1-.73 5.07ZM1312.5 273a16.79 16.79 0 0 0 3 4.89 18.32 18.32 0 0 0 4.49 3.8 17.62 17.62 0 0 0 5.47 2.14 13 13 0 0 0 5.65 0c3-.7 5.21-1.77 6.6-3.23a10.82 10.82 0 0 0 2.74-4.65 12.91 12.91 0 0 0 .4-4.73 29.92 29.92 0 0 0-.49-3.29 14.12 14.12 0 0 0-2.24-5.27 10.55 10.55 0 0 0-3.29-3.05 9.13 9.13 0 0 0-3.81-1.16 13.07 13.07 0 0 0-4 .3 17.3 17.3 0 0 0-8.7 5.08A27.61 27.61 0 0 0 1312.5 273ZM1373.86 265.07a8.83 8.83 0 0 1-5.34-1 5.08 5.08 0 0 1-2.44-3.18 5.92 5.92 0 0 1 .83-4.35 7 7 0 0 1 4.81-3.09l16.93-3.92 5.62-1.3c1.86-.43 3.55-.84 5.09-1.25s2.9-.73 4.06-1l2.52-.59a8.33 8.33 0 0 1 4.76 1.42 5.43 5.43 0 0 1 2.15 3.11 4.93 4.93 0 0 1-.71 3.71 9.59 9.59 0 0 1-3.92 3.36c-2.84.66-5.75 1.35-8.71 2.08s-5.83 1.42-8.58 2.06ZM1473.05 260.49a6.36 6.36 0 0 1-4.93 8.09 6.49 6.49 0 0 1-4.34-.5 6.78 6.78 0 0 1-3.28-4.14l-3.17-13.7L1430.74 256q-6.59 1-7.84-4.45a10.79 10.79 0 0 1-.13-1.75q2.54-9 5.25-17.9t5.44-17.67l6.28-20.53a7.07 7.07 0 0 1 5.3-4.76 6.63 6.63 0 0 1 4.49.59 5.16 5.16 0 0 1 2.9 3.69 6.48 6.48 0 0 1-.24 3q-1.79 5.87-3.57 11.66c-1.19 3.86-2.38 7.79-3.54 11.78l-6.92 22.44 16.51-3.41-3.18-13.7q.3-5.79 5-6.87a7.16 7.16 0 0 1 4.36.28 6.54 6.54 0 0 1 3.27 3.26l3.29 14.22 6.85-1.58q6 .78 6.91 4.53 1 4.26-4.73 7.22c-1.12.26-2.12.52-3 .77a30.57 30.57 0 0 1-3.31.7ZM1529 216.88l-33.62 7.78a11.76 11.76 0 0 1-6.42-.08 5.51 5.51 0 0 1-3.61-4.4 5.65 5.65 0 0 1 .5-2.84 6 6 0 0 1 1.7-2.1 10.85 10.85 0 0 1 2.45-1.45 16 16 0 0 1 2.66-.89l33.61-7.78c3.08-.44 5.43-.17 7.07.81a4.76 4.76 0 0 1 1.34 7.86A10 10 0 0 1 1529 216.88Zm5.16 21.69-33.88 7.84a10.58 10.58 0 0 1-6.58-.18 5.12 5.12 0 0 1-3.17-3.69 5.06 5.06 0 0 1 1.44-5 11.16 11.16 0 0 1 5.59-2.93l33.87-7.85q4.42-.88 6.91.45a5 5 0 0 1 2.87 3.55 5.87 5.87 0 0 1-1.33 4.54A9.54 9.54 0 0 1 1534.18 238.57ZM1568.15 171.17a16.86 16.86 0 0 0-8.65 5 49.71 49.71 0 0 0-6.46 8.57 7.89 7.89 0 0 1-4.62 3 6 6 0 0 1-4.64-.63 5.69 5.69 0 0 1-2.66-3.81 8 8 0 0 1 .34-4.43c1.24-2.11 2.63-4.22 4.18-6.35a44.44 44.44 0 0 1 5.11-5.89 33.48 33.48 0 0 1 6.07-4.67 23.81 23.81 0 0 1 7-2.86 19.46 19.46 0 0 1 8.42-.11 20.26 20.26 0 0 1 7.67 3.4 24.45 24.45 0 0 1 6.14 6.55 28.62 28.62 0 0 1 3.87 9.32 19.16 19.16 0 0 1 .14 8.28 28.4 28.4 0 0 1-2.74 7.58 35.89 35.89 0 0 1-4.64 6.73q-2.74 3.15-5.52 5.84c-1.48 1.43-2.92 2.9-4.29 4.4a30.31 30.31 0 0 0-3.7 4.94 22.69 22.69 0 0 0-2.49 6 23.9 23.9 0 0 0-.58 7.49l22.89-5.3a4.39 4.39 0 0 0 1.79-1.09 7.45 7.45 0 0 0 1.08-1.48c.29-.52.58-1.06.85-1.63a4.29 4.29 0 0 1 1.11-1.41 5.47 5.47 0 0 1 1.56-.91 13.58 13.58 0 0 1 1.78-.55 6.2 6.2 0 0 1 4.86.72 5.72 5.72 0 0 1 2.69 3.67 5.09 5.09 0 0 1 .12 2.28 9.48 9.48 0 0 1-.47 1.47 25.58 25.58 0 0 1-4.71 7 14.48 14.48 0 0 1-7.43 4.11l-30.38 7q-6 .71-8-5-.6-4.35-.77-8.6a48 48 0 0 1 .39-8.34 34.07 34.07 0 0 1 2-7.89 29.2 29.2 0 0 1 4.23-7.32 20.85 20.85 0 0 1 2.56-2.77c1.16-1.08 2.32-2.22 3.51-3.4q2.22-2.14 4.5-4.38a26.21 26.21 0 0 0 3.91-4.86 18.46 18.46 0 0 0 2.33-5.51 13.65 13.65 0 0 0-.11-6.37 11.1 11.1 0 0 0-3.14-5.34A7.61 7.61 0 0 0 1568.15 171.17ZM1834.47 403.35a7.55 7.55 0 0 1-1.18-5.76 5.37 5.37 0 0 1 2.71-3.5 6.62 6.62 0 0 1 5-.48 9.93 9.93 0 0 1 2.87 1.11 25.08 25.08 0 0 0 12.65 8 16 16 0 0 0 11.66-1.57 15 15 0 0 0 4.52-3.94 16 16 0 0 0 2.77-6 11 11 0 0 0-.11-6.24 13.11 13.11 0 0 0-2.91-4.81 17 17 0 0 0-4.51-3.37A22.56 22.56 0 0 0 1863 375a29 29 0 0 0-8.43-.71 4.46 4.46 0 0 0-.84.35c-.36.18-.76.4-1.19.66a14.57 14.57 0 0 1-1.87 1 4.79 4.79 0 0 1-2.85-.08 6.94 6.94 0 0 1-4-2.55 7.08 7.08 0 0 1-1.06-5.38c.37-2.28.83-4.49 1.36-6.64s1-4.35 1.48-6.6l2.82-13.11a6 6 0 0 1-.92-4.6 6.4 6.4 0 0 1 2.83-3.75 7 7 0 0 1 5.78-.69l2.51.62c1.16.28 2.54.6 4.14.94l5.31 1.18q2.92.65 5.88 1.37 2.71.68 5.56 1.3l5.31 1.17c1.65.36 3 .68 4.21 1l2.38.58a8.45 8.45 0 0 1 3.86 3.48 5.53 5.53 0 0 1 .48 3.88 5.27 5.27 0 0 1-2.45 3.29 9.73 9.73 0 0 1-5.22 1.24q-3.51-.72-7.2-1.56t-7.17-1.7q-3.48-.86-6.23-1.6c-1.84-.5-4-.95-6.43-1.38L1857.91 362a29.12 29.12 0 0 1 4.3.3c1.4.21 2.84.5 4.3.86a31.36 31.36 0 0 1 11.2 5 28 28 0 0 1 7.42 7.9 25.94 25.94 0 0 1 3.59 9.56 24.52 24.52 0 0 1-.36 9.82 24.1 24.1 0 0 1-4.36 8.84 29.27 29.27 0 0 1-7.89 7.07 30.66 30.66 0 0 1-10.42 4 27.43 27.43 0 0 1-11.92-.4 36.06 36.06 0 0 1-10.53-4.43A45.48 45.48 0 0 1 1834.47 403.35ZM1903.81 403.73a8.64 8.64 0 0 1-4.38-3.33 5.19 5.19 0 0 1-.68-3.92 5.8 5.8 0 0 1 2.63-3.46q2.11-1.39 5.76-.64l12.88 3.17 4.47-18.17a7.18 7.18 0 0 1 3.34-3.55 6.57 6.57 0 0 1 4.31-.3 7 7 0 0 1 3.57 2.17 6.38 6.38 0 0 1 1.51 4.4l-4.56 18.56 16 3.93a8.33 8.33 0 0 1 3.61 3.41 5.47 5.47 0 0 1 .51 3.75 4.92 4.92 0 0 1-2.31 3 9.52 9.52 0 0 1-5 1.22l-15.59-3.83-4.53 18.42c-.63 2.22-1.72 3.66-3.25 4.33a7 7 0 0 1-4.61.44 6.65 6.65 0 0 1-3.78-2.44 6.49 6.49 0 0 1-1.11-4.91l4.66-19ZM1982.94 443.69a7.85 7.85 0 0 1-3.58 2.88 6.44 6.44 0 0 1-3.74.23 6.33 6.33 0 0 1-3.75-2.56 6.53 6.53 0 0 1-.95-5 116.36 116.36 0 0 1 6.75-15.22 142.75 142.75 0 0 1 9.27-15.21 145 145 0 0 1 11.1-14 108.44 108.44 0 0 1 12.09-11.65l-34.8-8.56a8.78 8.78 0 0 1-4.3-3.31 5 5 0 0 1-.74-3.94 5.62 5.62 0 0 1 2.69-3.44 7.5 7.5 0 0 1 5.69-.65l47.42 11.66q5.07 2.75 4 7a6.51 6.51 0 0 1-.46 1.32 7.8 7.8 0 0 1-.69 1.13c-2.35 1.79-4.2 3.18-5.53 4.18s-2.64 2-3.91 3.07a140.91 140.91 0 0 0-11.14 11.13 153.89 153.89 0 0 0-10.13 12.61 128.32 128.32 0 0 0-8.64 13.72 103.08 103.08 0 0 0-6.51 14.53ZM2071.44 433.34l-33.51-8.24a12 12 0 0 1-5.69-3 5.49 5.49 0 0 1-1.22-5.56 5.58 5.58 0 0 1 1.72-2.31 6.23 6.23 0 0 1 2.46-1.1 10.75 10.75 0 0 1 2.85-.19 15.63 15.63 0 0 1 2.77.41l33.51 8.24q4.41 1.49 5.93 3.92a5.26 5.26 0 0 1 .89 4.45 5.34 5.34 0 0 1-3.24 3.17A10.06 10.06 0 0 1 2071.44 433.34Zm-5.2 21.67-33.76-8.3a10.54 10.54 0 0 1-5.78-3.13 5.08 5.08 0 0 1-1.16-4.72 5 5 0 0 1 3.52-3.78 11.12 11.12 0 0 1 6.31-.09l33.76 8.3c2.9.8 4.89 2 6 3.52a5 5 0 0 1 1 4.46 5.86 5.86 0 0 1-3.24 3.44Q2070.25 456 2066.24 455ZM2121.49 468.19a8 8 0 0 1 3.67 3.43 5.6 5.6 0 0 1 .45 3.73 5 5 0 0 1-2.24 3 9.13 9.13 0 0 1-5.08 1.21l-19.85-4.88a7.15 7.15 0 0 1-4.4-3.2 5.64 5.64 0 0 1-.65-4.05 6 6 0 0 1 2.64-3.52c1.43-1 3.34-1.16 5.75-.57l2.45.6 12.39-50.38a7.48 7.48 0 0 1-2.68-.25 6.11 6.11 0 0 1-3.93-2.61 5.17 5.17 0 0 1-.7-4.13 5.83 5.83 0 0 1 1.17-2.24 7.33 7.33 0 0 1 2.3-1.83l10.92-3.87a11.31 11.31 0 0 1 3.51.18 6 6 0 0 1 5 6.29l-15.24 62ZM2188.21 425.29a16.87 16.87 0 0 0-10 .55 49.41 49.41 0 0 0-9.63 4.74 7.92 7.92 0 0 1-5.48.56 6 6 0 0 1-3.85-2.65 5.74 5.74 0 0 1-.65-4.6 8 8 0 0 1 2.31-3.81q3.08-2 6.6-3.77a44.35 44.35 0 0 1 7.21-2.94 34 34 0 0 1 7.53-1.43 24.06 24.06 0 0 1 7.56.63 19.24 19.24 0 0 1 7.56 3.7 20.1 20.1 0 0 1 5.31 6.5 24.25 24.25 0 0 1 2.52 8.62 28.7 28.7 0 0 1-.76 10.06 19.11 19.11 0 0 1-3.61 7.45 28.43 28.43 0 0 1-5.87 5.52 35.92 35.92 0 0 1-7.17 3.91c-2.59 1.05-5.11 2-7.57 2.71-2 .61-3.92 1.28-5.82 2a31.26 31.26 0 0 0-5.53 2.74A22.74 22.74 0 0 0 2164 470a23.5 23.5 0 0 0-3.9 6.42l22.81 5.61a4.31 4.31 0 0 0 2.09-.17 7.62 7.62 0 0 0 1.64-.82c.49-.34 1-.69 1.49-1.07a4.32 4.32 0 0 1 1.62-.77 5.73 5.73 0 0 1 1.81-.1 14 14 0 0 1 1.83.31 6.24 6.24 0 0 1 4 2.84 5.73 5.73 0 0 1 .74 4.48 5 5 0 0 1-.93 2.1 8.72 8.72 0 0 1-1.08 1.1 25.41 25.41 0 0 1-7.38 4.13 14.46 14.46 0 0 1-8.47.31L2150 486.94q-5.64-2.07-4.86-8 1.44-4.16 3.21-8a48.41 48.41 0 0 1 4.1-7.26 33.9 33.9 0 0 1 5.41-6.12 29 29 0 0 1 7.07-4.61 20.56 20.56 0 0 1 3.54-1.32q2.28-.68 4.66-1.45c2-.61 4-1.23 6-1.88a26 26 0 0 0 5.68-2.56 18.86 18.86 0 0 0 4.58-3.86 13.81 13.81 0 0 0 2.77-5.74 11.06 11.06 0 0 0-.39-6.18A7.56 7.56 0 0 0 2188.21 425.29ZM1572.85 796.86a5.88 5.88 0 0 1-7.62 4.36 6 6 0 0 1-3.3-2.34 6.35 6.35 0 0 1-.81-4.83l3.56-12.53-24.15-7.23q-5.77-2.16-4.37-7.12a10.81 10.81 0 0 1 .67-1.47q6.11-6.19 12.27-12.18t12.32-11.9l14.28-13.84a6.55 6.55 0 0 1 6.43-1.5 6.17 6.17 0 0 1 3.38 2.49 4.79 4.79 0 0 1 .7 4.29 5.84 5.84 0 0 1-1.57 2.36c-2.7 2.64-5.41 5.26-8.1 7.87s-5.41 5.25-8.14 8l-15.66 15.12 14.93 4.61 3.55-12.54q2.82-4.56 7.08-3.36a6.61 6.61 0 0 1 3.41 2.18 6 6 0 0 1 1.2 4.11l-3.69 13 6.27 1.78q4.54 3.33 3.58 6.77c-.74 2.6-3.1 3.84-7.07 3.74-1-.29-2-.53-2.8-.73a26.91 26.91 0 0 1-3-.91ZM1604.7 788.64a8.05 8.05 0 0 1-3.88-3.21 4.7 4.7 0 0 1-.56-3.67 5.46 5.46 0 0 1 2.62-3.15 6.45 6.45 0 0 1 5.27-.36l15.5 4.39 5.15 1.46c1.69.48 3.25.9 4.68 1.27s2.68.69 3.74 1l2.31.66a7.69 7.69 0 0 1 3.23 3.27 5.07 5.07 0 0 1 .35 3.49 4.6 4.6 0 0 1-2.23 2.69 8.85 8.85 0 0 1-4.68 1c-2.61-.74-5.27-1.47-8-2.2s-5.36-1.46-7.89-2.17ZM1685.92 765.79a15.62 15.62 0 0 0-9.25.19 47.2 47.2 0 0 0-9.08 4.07 7.29 7.29 0 0 1-5.08.35 5.66 5.66 0 0 1-3.48-2.58 5.27 5.27 0 0 1-.45-4.28 7.29 7.29 0 0 1 2.26-3.45c1.94-1.16 4-2.25 6.23-3.29a41.74 41.74 0 0 1 6.77-2.48 31.65 31.65 0 0 1 7-1.08 22.27 22.27 0 0 1 7 .83 17.91 17.91 0 0 1 6.89 3.67 18.71 18.71 0 0 1 4.69 6.19 22.42 22.42 0 0 1 2.06 8.06 26.34 26.34 0 0 1-1 9.29 17.68 17.68 0 0 1-3.59 6.78 26.23 26.23 0 0 1-5.61 4.92 33.23 33.23 0 0 1-6.77 3.39c-2.43.89-4.79 1.64-7.1 2.27q-2.76.75-5.45 1.65a27.84 27.84 0 0 0-5.2 2.36 20.49 20.49 0 0 0-4.71 3.77 22 22 0 0 0-3.83 5.82l20.94 5.93a4 4 0 0 0 1.94-.09 6.79 6.79 0 0 0 1.54-.71c.47-.29.94-.61 1.42-.94a4 4 0 0 1 1.52-.65 5 5 0 0 1 1.68 0 13.69 13.69 0 0 1 1.69.35 5.73 5.73 0 0 1 3.62 2.76 5.27 5.27 0 0 1 .55 4.17 4.78 4.78 0 0 1-.93 1.91 8.25 8.25 0 0 1-1 1 23.51 23.51 0 0 1-7 3.59 13.4 13.4 0 0 1-7.86 0l-27.79-7.88q-5.16-2.1-4.25-7.59 1.47-3.81 3.23-7.33a44.1 44.1 0 0 1 4-6.58 31.39 31.39 0 0 1 5.19-5.49 26.79 26.79 0 0 1 6.7-4 18.15 18.15 0 0 1 3.32-1.11c1.43-.36 2.88-.76 4.36-1.19q2.78-.75 5.61-1.54a24.44 24.44 0 0 0 5.35-2.19 16.93 16.93 0 0 0 4.36-3.43 12.75 12.75 0 0 0 2.76-5.22 10.41 10.41 0 0 0-.16-5.73A7 7 0 0 0 1685.92 765.79ZM1746.81 817.42l-30.76-8.72a11 11 0 0 1-5.17-2.93 4.83 4.83 0 0 1 .72-7.27 5.45 5.45 0 0 1 2.32-.94 10 10 0 0 1 2.63-.09 14.94 14.94 0 0 1 2.56.47l30.75 8.72q4 1.53 5.37 3.82a4.86 4.86 0 0 1 .67 4.15 4.92 4.92 0 0 1-3.1 2.83A9.33 9.33 0 0 1 1746.81 817.42Zm-5.52 19.91-31-8.79a9.81 9.81 0 0 1-5.26-3.08 4.75 4.75 0 0 1-.92-4.42 4.67 4.67 0 0 1 3.38-3.38 10.35 10.35 0 0 1 5.85.12l31 8.78c2.65.84 4.46 2 5.41 3.45a4.65 4.65 0 0 1 .73 4.17 5.38 5.38 0 0 1-3.11 3.08A8.78 8.78 0 0 1 1741.29 837.33ZM1799 797.84a15.65 15.65 0 0 0-9.26.19 46.25 46.25 0 0 0-9.07 4.07 7.3 7.3 0 0 1-5.08.35 5.66 5.66 0 0 1-3.49-2.58 5.35 5.35 0 0 1-.45-4.28 7.29 7.29 0 0 1 2.26-3.45 70 70 0 0 1 6.23-3.28 40.64 40.64 0 0 1 6.78-2.49 30.91 30.91 0 0 1 7-1.08 21.94 21.94 0 0 1 7 .83 17.8 17.8 0 0 1 6.88 3.67 18.51 18.51 0 0 1 4.7 6.19 22.47 22.47 0 0 1 2.06 8.06 26.34 26.34 0 0 1-1 9.29 17.8 17.8 0 0 1-3.58 6.78 26.28 26.28 0 0 1-5.62 4.92 33.23 33.23 0 0 1-6.77 3.39c-2.43.89-4.79 1.64-7.09 2.27q-2.78.75-5.46 1.65a28.45 28.45 0 0 0-5.2 2.35 20.76 20.76 0 0 0-4.71 3.78 21.76 21.76 0 0 0-3.82 5.82l20.93 5.93a4 4 0 0 0 1.94-.09 7.07 7.07 0 0 0 1.55-.71l1.41-.94a4 4 0 0 1 1.53-.65 4.91 4.91 0 0 1 1.67 0 11.78 11.78 0 0 1 1.69.35 5.75 5.75 0 0 1 3.63 2.75 5.33 5.33 0 0 1 .54 4.18 4.78 4.78 0 0 1-.93 1.91 8.25 8.25 0 0 1-1 1 23.51 23.51 0 0 1-7 3.59 13.4 13.4 0 0 1-7.86 0l-27.79-7.88q-5.16-2.1-4.24-7.59a79.61 79.61 0 0 1 3.23-7.33 44 44 0 0 1 4-6.58 31.83 31.83 0 0 1 5.2-5.49 26.68 26.68 0 0 1 6.71-4 18 18 0 0 1 3.31-1.11c1.42-.37 2.88-.76 4.36-1.19l5.62-1.54a24.57 24.57 0 0 0 5.34-2.19 17.15 17.15 0 0 0 4.36-3.43 12.7 12.7 0 0 0 2.76-5.22 10.36 10.36 0 0 0-.16-5.74A7 7 0 0 0 1799 797.84ZM935.07 895.27a17.31 17.31 0 0 1 .73-6.42 19.11 19.11 0 0 1 2.73-5.31 31.73 31.73 0 0 1 4.12-4.61c1.55-1.44 3.18-2.85 4.91-4.23l.1-.13a44.46 44.46 0 0 1-9.37-7.85A19.39 19.39 0 0 1 933.38 856a12.75 12.75 0 0 1 1.37-8.11A17.54 17.54 0 0 1 940.2 842a30.79 30.79 0 0 1 7.88-3.8 46.94 46.94 0 0 1 8.67-2 36.47 36.47 0 0 1 7.42-.15 22.19 22.19 0 0 1 7.17 1.75 15.75 15.75 0 0 1 5.6 4.11 13 13 0 0 1 2.89 7.07 22.18 22.18 0 0 1-.1 6.89 18 18 0 0 1-2.23 5.86 28.76 28.76 0 0 1-4.09 5.3 58.87 58.87 0 0 1-5.84 5.21q3.3 1.56 6.64 3.42a40.83 40.83 0 0 1 6.11 4.18 25.36 25.36 0 0 1 4.67 5 13.33 13.33 0 0 1 2.32 6 14.21 14.21 0 0 1-1.78 9.28 24.64 24.64 0 0 1-6.51 7.22 36.34 36.34 0 0 1-8.92 4.92 38.83 38.83 0 0 1-9 2.39 30.82 30.82 0 0 1-9.26-.17 21.4 21.4 0 0 1-8.08-3.12 18.77 18.77 0 0 1-5.95-6.3A21.88 21.88 0 0 1 935.07 895.27Zm12.06-2.66a13.23 13.23 0 0 0 .67 6.73A8 8 0 0 0 951 903a11.06 11.06 0 0 0 4.77 1.43 25.44 25.44 0 0 0 5.25-.12 24.66 24.66 0 0 0 4.51-1.07 16.56 16.56 0 0 0 4.72-2.4 13.07 13.07 0 0 0 3.48-3.79 8.25 8.25 0 0 0 .92-5.39 6.79 6.79 0 0 0-2-3.89 20.36 20.36 0 0 0-4.2-3.24 50 50 0 0 0-5.11-2.63c-1.79-.8-3.39-1.49-4.78-2q-4 3-7.43 5.91A10.5 10.5 0 0 0 947.13 892.61Zm-.86-34.72a13.28 13.28 0 0 0 4.92 5.5q3.09 1.9 6.29 3.6a47.06 47.06 0 0 0 5.69-5.38 27.21 27.21 0 0 0 4.37-7 9.72 9.72 0 0 0-.18-4.8 4.88 4.88 0 0 0-2.13-2.64 7.79 7.79 0 0 0-3.6-1 26 26 0 0 0-4.44.2 22.37 22.37 0 0 0-4 1 17.19 17.19 0 0 0-4.42 2.24 8.53 8.53 0 0 0-3 3.48A5.38 5.38 0 0 0 946.27 857.89ZM1001.21 887.16a8.13 8.13 0 0 1-4.83-1.43 4.7 4.7 0 0 1-2-3.15 5.55 5.55 0 0 1 1.17-3.94 6.52 6.52 0 0 1 4.72-2.4l16-2 5.3-.68c1.75-.22 3.36-.44 4.81-.67s2.74-.42 3.83-.56l2.38-.3a7.67 7.67 0 0 1 4.25 1.75 5 5 0 0 1 1.7 3.06 4.48 4.48 0 0 1-1 3.35 8.79 8.79 0 0 1-3.92 2.74q-4 .51-8.22 1.11t-8.11 1.1ZM1047.34 893.14a7.48 7.48 0 0 1-2.09-3.7 4.74 4.74 0 0 1 1.17-3.93 6.12 6.12 0 0 1 3.91-1.92 6.72 6.72 0 0 1 3.6.53 31 31 0 0 1 3.65 1.88l-.12 0c1.41.73 2.82 1.43 4.23 2.12a7.46 7.46 0 0 0 4.31.75 10.61 10.61 0 0 0 5.2-2 12.57 12.57 0 0 0 3.45-4 17 17 0 0 0 1.8-5.25 19 19 0 0 0 .13-5.78 6.57 6.57 0 0 0-2.64-4.62 15 15 0 0 0-5.27-2.48 26.92 26.92 0 0 0-6.25-.87 35.5 35.5 0 0 0-5.43.2 7.63 7.63 0 0 1-4.3-1.68 4.92 4.92 0 0 1-1.63-3 4.83 4.83 0 0 1 .93-3.41 7.51 7.51 0 0 1 3.87-2.67c1.28-.32 2.67-.75 4.17-1.27a30.11 30.11 0 0 0 4.34-1.92 16.3 16.3 0 0 0 3.68-2.71 9.61 9.61 0 0 0 2.34-3.52q.28-5.49-2.59-7.16a11.49 11.49 0 0 0-7.39-1.1 32.26 32.26 0 0 0-5.66 1.28 15.19 15.19 0 0 0-4.56 2.14 19.74 19.74 0 0 1-2.19 1.82 5.75 5.75 0 0 1-2.67.9 5.66 5.66 0 0 1-4.24-1.12 6.5 6.5 0 0 1-2.32-4.6 7.84 7.84 0 0 1 3-4.91 22.05 22.05 0 0 1 5.53-3.25 34.7 34.7 0 0 1 6.14-1.9c2-.43 3.65-.72 4.78-.86a33.59 33.59 0 0 1 8.61-.05 20.31 20.31 0 0 1 7.3 2.29 15.28 15.28 0 0 1 5.33 4.89 17.27 17.27 0 0 1 2.72 7.64c.08.65.17 1.51.27 2.57a11.73 11.73 0 0 1-.34 3.64 16.32 16.32 0 0 1-1.91 4.46 21.14 21.14 0 0 1-4.44 5 26.29 26.29 0 0 1 8.84 6.06 16.83 16.83 0 0 1 4.74 9.92 20.74 20.74 0 0 1-1 9.49 31.23 31.23 0 0 1-4.65 8.71 28.71 28.71 0 0 1-7.08 6.67 19.69 19.69 0 0 1-8.44 3.26 21.69 21.69 0 0 1-11-1.32A50.63 50.63 0 0 1 1047.34 893.14ZM1139.91 858.22l-31.71 4.06a11 11 0 0 1-5.91-.66 4.81 4.81 0 0 1-2.19-7 5.61 5.61 0 0 1 1.75-1.78 10.53 10.53 0 0 1 2.4-1.11 14 14 0 0 1 2.53-.57l31.7-4.07q4.32-.18 6.44 1.41a4.88 4.88 0 0 1 2.26 3.55 5 5 0 0 1-1.74 3.82A9.39 9.39 0 0 1 1139.91 858.22Zm2.75 20.47-32 4.09a9.77 9.77 0 0 1-6-.77 4.75 4.75 0 0 1-2.58-3.7 4.66 4.66 0 0 1 1.78-4.44 10.44 10.44 0 0 1 5.43-2.18l31.94-4.1q4.17-.4 6.33 1a4.63 4.63 0 0 1 2.32 3.54 5.47 5.47 0 0 1-1.65 4.06A8.83 8.83 0 0 1 1142.66 878.69ZM1164 880.79a7 7 0 0 1-2.94-4.59 4.91 4.91 0 0 1 1.17-3.92 6.13 6.13 0 0 1 4.13-2.08 9.06 9.06 0 0 1 2.86 0 23.28 23.28 0 0 0 13.61 2.72 14.84 14.84 0 0 0 5.29-1.73 14.57 14.57 0 0 0 4.26-3.53 13.86 13.86 0 0 0 2.59-4.91 14.63 14.63 0 0 0 .4-6.07 10.14 10.14 0 0 0-2.17-5.36 12.26 12.26 0 0 0-4.13-3.19 15.7 15.7 0 0 0-5-1.4 21.62 21.62 0 0 0-4.83 0 26.73 26.73 0 0 0-7.52 2.21 3.23 3.23 0 0 0-.61.57c-.26.28-.52.6-.81 1A14.71 14.71 0 0 1 1169 852a4.54 4.54 0 0 1-2.5.88 6 6 0 0 1-7-5.18c-.44-2.09-.78-4.16-1-6.19s-.56-4.1-.91-6.2l-2-12.27a5.56 5.56 0 0 1-2.33-3.67 5.88 5.88 0 0 1 1.2-4.18 6.43 6.43 0 0 1 4.76-2.53l2.38-.31c1.09-.14 2.39-.32 3.89-.56l5-.76q2.73-.4 5.53-.77c1.71-.22 3.46-.46 5.24-.74l5-.76q2.31-.36 4-.57l2.25-.29a7.85 7.85 0 0 1 4.5 1.72 5.09 5.09 0 0 1 1.71 3.19 4.88 4.88 0 0 1-1 3.66 9 9 0 0 1-4.1 2.82q-3.27.54-6.74 1t-6.76.93q-3.3.42-5.92.7t-6 1l2.33 14.33a26.64 26.64 0 0 1 3.82-1.17c1.28-.29 2.61-.52 4-.7a29.25 29.25 0 0 1 11.36.59 26.14 26.14 0 0 1 9.05 4.35 23.91 23.91 0 0 1 6.29 7.07 22.57 22.57 0 0 1 3 8.6 22.14 22.14 0 0 1-.82 9.09 27 27 0 0 1-4.45 8.75 28.57 28.57 0 0 1-7.67 6.93 25.34 25.34 0 0 1-10.44 3.64A33.2 33.2 0 0 1 1174 884 42.07 42.07 0 0 1 1164 880.79Z" style="fill:#d6d6d6"></path>
    <path d="M1948.84,486.29c-20.46-15.91-39.4-20.46-63.64-25-44-8.34-94-4.55-127.31,15.91-35.61,22.73-52.28,71.22-52.28,71.22s-5.31,34.86-3,65.17a231.48,231.48,0,0,0,11.36,55.32l276.58.75s7.58-25.76,9.85-62.13S1999.62,524.93,1948.84,486.29Z" style="fill:#e88585;fill-rule:evenodd"></path>
    <path d="M1982.18,668.91c-10.6-6.82-20.46-.76-32.58-7.58-14.39-9.09-28-41.68-28-41.68s-9.86-7.58-18.19-22c-6.82-11.37-12.12-30.31-18.18-31.07s-21.22,22.73-26.53,29.55c-6.82,8.34-40.16,9.85-40.16,9.85l-28,17.43s-10.61,17.43-19.71,27.28c-16.66,16.67-38.64,15.16-47,17.43-24.24,6.82-20.46,34.85-14.39,47.74,9.09,18.18,29.55,21.21,29.55,21.21s8.34,28,20.46,47.74,24.21,28.21,24.21,28.21,27.52,58.34,27.5,69.82c0,0,15.24,18.6,29.65,24.09,18.2,6.94,44.42,15.22,44.42,15.22s20.61-21.86,34.1-38.22c19.67-23.88,22.25-46.32,17.93-52.37-8.33-11.65-11-28.49-11-28.49a126.52,126.52,0,0,0,21.88-29.63,257,257,0,0,0,14.39-35.61s21.22-2.27,31.07-19.7C1998.1,705.28,2007.19,684.06,1982.18,668.91Z" style="fill-rule:evenodd;fill:#ffddc0"></path>
    <path d="M1084.76,561a287.17,287.17,0,0,0-41-37.94c-12.08-9.27-27.07-21.81-42.65-27.44-74.49-26.33-137.55,19.41-154.7,41.63C808,587.45,810.68,662.32,810.68,662.32l260.85,80.37s31.26-42.25,37.11-94C1111.89,620.59,1106.19,585.75,1084.76,561Z" style="fill-rule:evenodd;fill:#d2926a"></path>
    <path d="M1067.44,740.63c-8-9.59-11.93-2.13-21.18-12.89-11-12.86-5.23-59.11-5.23-59.11s-1.81-6.86-2.54-19.69c-.69-10.45,1.63-25.48-5.47-35.56-6.6-9.15-66.58-46.71-89.53-28.65-4,2.7-16.79,16-30.25,21.3A73.14,73.14,0,0,1,887,612s-20.78,31.33-36.91,45.22c-13.8,11.45-23,5.45-27,5.77-25-.69-29.67,27-27.72,41,3.25,19.91,21.74,28.81,21.74,28.81s-3.48,32.77,2.2,55a122,122,0,0,0,17.32,38.09s-6.82,43.56-25.77,55.27c0,0-.53,31.12,14.26,50.28s43,26.62,43,26.62,28.7,6.71,51.19-1.81,41.07-31.35,41.07-31.35-3.44-10-2.11-20A177,177,0,0,1,972.49,856s18.28-13.21,32-27a254.94,254.94,0,0,0,24.14-29.5s20.78,4.1,35.25-9.51C1071.8,779.79,1086.67,762.37,1067.44,740.63Z" style="fill-rule:evenodd;fill:#ffddc0"></path>
    <path d="M1488.5,499.59s-50.43-35.71-101.88-38.85-103.2,27.07-103.2,27.07-10-20.78-25.84-22c-31-1.74-37,20.06-37,20.06a48.71,48.71,0,0,0-15.47,33.62c-.88,28,34.47,36.72,34.47,36.72s-5.57,32.42-4.21,61.28c1.34,29.61,10.35,56.43,10.35,56.43l274.14,9.41s11.8-37.54,15.77-67c3.2-29.46-2.23-49.35-2.23-49.35s22.08-3.09,30.37-25.57c5.78-15-3.52-32.71-3.52-32.71s-12.7-30-30.1-31.28C1498.42,473.37,1488.5,499.59,1488.5,499.59Z" style="fill-rule:evenodd;fill:#fdc67f"></path>
    <path d="M1513.86,680.82c-10.39-7.15-20.43-1.4-32.33-8.6-14.1-9.54-30.07-32-44.1-43.84-10.37-7.91-13.55-27-27.12-29.67-6-1-12.38,7.95-17.92,15.36-7.08,8.11-13.35,14.74-20.22,16-12.23,3.41-32.56-1-32.56-1s-30,12.7-39.34,21.5c-17.2,16.13-36.22,18.57-44.63,20.57-24.45,6.06-21.54,34.2-15.89,47.26,8.51,18.47,28.87,22.15,28.87,22.15s7.44,28.28,18.94,48.36a192.65,192.65,0,0,0,25.51,34.51s4.51,43,2.53,62.5c-1.39,13.77-13.64,15.21-13.64,15.21s6.33,28.4,26,44.5,52.66,19.92,52.66,19.92,35.35-2.18,59.6-23.21,37.43-60.9,37.43-60.9-14.92,5.26-20.74-10.78-4.25-52.28-4.25-52.28S1466.4,804.1,1476,787c9.66-17.89,16-38.6,16-38.6s21.27-1.61,31.67-18.72C1529.37,717.7,1538.37,696.76,1513.86,680.82Z" style="fill-rule:evenodd;fill:#ffddc0"></path>
    <path d="m1417.19 766.82-69.5-1.06s.23 39.66 32.1 40.59C1407.09 807.14 1417.19 766.82 1417.19 766.82ZM950.91 796.66l-68.67-20.81s.83 42.35 17.9 47.85C929.13 833 950.91 796.66 950.91 796.66ZM2260 827.63l2.1 13.88s-17.6 5.2-35.33 8.51a169.84 169.84 0 0 1-36 2.24l2.52 53-53.47-61.22L2053.68 787a119 119 0 0 0-42.19 6.67c-22 7.84-45.63 24.71-45.63 24.71l-23.81-11.28-13.58 6.1 11.24 20.44s2 26-19 50.4c-17.12 19.91-35.56 39.6-35.56 39.6s-27-11.36-47-19.12c-17.7-6.85-28-23.06-28-23.06l-6.3-22.14L1790 869.84 1786.27 901s-55 26.91-82.79 56.18c-14.43 15.18-32.09 57.36-32.09 57.36l-30.2 322s9.14 53.88 26.89 83.44c15.34 25.54 47.24 65.11 67.8 86.29 7.4 7.64 23.34 10.11 23.34 10.11l15.27-98.57s-9.24-15.59-17.79-34.36-16.4-40.7-16.4-40.7l24.44-71.89 27.68 141.32L1816 1492s34.39 26.46 117.68 24.42 126.6-5.94 208.9-33c77.36-25.4 94.06-57.94 94.06-57.94L2189.77 1272l-37.42-193s50.48 67.4 88.51 91.07 63.61 3.62 63.61 3.62 31.45-30.4 23-115.78-56.93-225.71-56.93-225.71Z" style="fill:#fff"></path>
    <path d="M2260.49 840.86s2.23-33-16.19-53.74c-15.6-17.59-64.67-70.07-64.67-70.07s-14.79-34.78-24.06-63.76c-5.18-16.16-2.55-34.23-9.32-34.53-22-1-18.61 43.22-18.61 43.22l9.15 49.62s-36.82 6-58.4 14.64-30.12 17.6-30.12 17.6l10.17 23.93s-4.44 8.07-3.16 16.53 8.29 17.32 8.29 17.32-2.05 6 .07 11.37 8.43 10.25 8.43 10.25.5 17.1 9.52 20.14c8.09 2.72 41.51-5.88 41.51-5.88l29.54 6.93 38.72 2.1 1.95 5.92a111.68 111.68 0 0 0 30.64-1C2240.74 848.53 2260.49 840.86 2260.49 840.86ZM1771.08 1423.13s-19.34 7.92-30 20.44-12.66 29.65-12.66 29.65l25.91 27.2s6.09 19 18.75 30.77 31.78 17.46 31.78 17.46v-6.5s13.55-.08 11.66-7.62-19.22-22.58-19.22-22.58 17.78 6.52 23.82.37S1810.2 1492 1810.2 1492s18 4.08 16.18-5-23.57-31.25-23.57-31.25 13.28 3.09 10.35-7.49-11.62-27.63-22.08-34.81S1771.08 1423.13 1771.08 1423.13Z" style="fill:#ffddc0"></path>
    <path d="M2233.47,1830s18.92-144.21,19.5-243.84-17.16-154.68-17.16-154.68-51.67,48.27-143.09,68.18-117.29,16.9-185.76,15-88.1-22.68-88.1-22.68l-7.09,1.15s12.16,14.12,10.29,19.71-21.5,2-21.5,2,14.54,13.38,14.69,19.53-10.39,5.78-10.39,5.78L1786.06,1830Z" style="fill:#bfcee4"></path>
    <path d="M1477.28,881.27s-13.24,39-35.84,59.86-54.56,23.55-54.56,23.55-32.83,1.65-54.22-14.21-31.31-49.22-31.31-49.22-71,14.83-106.67,46-36,78.57-36,78.57-1.47,53.49,1.18,117.58,9.43,138.79,9.43,138.79l-34.31,153.55-3,156s14.73,19.7,43,27.51c18.11,5,30.44-3,30.44-3l53-187.94-20.4-260,179.69-10.92L1568,1109.13l55.17-.06.16-17.52,25.78,15.72-78.12,2.18a77.1,77.1,0,0,1,10,38.32c-.29,41.8-10.29,51-10.29,51l156,42.6S1831.32,1251,1847,1209.8c9.35-24.66-19-80.59-70.48-155.39S1643.21,897,1643.21,897s-17.38-21.95-58.86-25.89S1477.28,881.27,1477.28,881.27Z" style="fill:#ffd9d9"></path>
    <path d="M1688.83,1830s-5.6-218.11-16.24-268.38c-8.06-38.07-34.06-138.41-34.06-138.41L1623,1212.82l-51-15.21-57-131.9s-1.67-67.4,0-116.26,6.65-79.17,6.65-79.17l-44,9.47a446,446,0,0,0-11.76,62.61c-3.41,32.22-3.36,65.5-3.36,65.5l-45,149.42-101.17,5.84s-11.38-64.57-15.56-130.44-1.17-133.07-1.17-133.07l-41.09,14.07s-8.07,31-10.31,94.28,1.33,159,1.33,159l-11.56.67,21.56,260.15,1.43,23.75s-9.8,90.69-18.08,185.31S1227.81,1830,1227.81,1830Z" style="fill:#faacac"></path>
    <path d="M961.45,926.39S941.28,952,916.75,960s-53.37-1.67-53.37-1.67-28.09-11.75-41.53-31.64-12.25-47.92-12.25-47.92S765,864.31,730.06,859.31s-60.08-.58-60.08-.58-32,11-67.13,49.55c-37.86,41.53-80.13,112.17-111.59,152.6-60.65,78-63.88,109.68-63.88,109.68s-17.5,68.57,15.45,87.36c35.34,20.17,84-23,84-23L618.66,1120l22.29,4.5-18.2,321s19.57,26.34,63.25,43.19S797.47,1513,797.47,1513s86.11,2.2,139-8,72.58-32.78,72.58-32.78l-5.19-120.61,19.61-132s16.78,105.83,30,136.89c19.81,46.7,61.65,44.86,61.65,44.86l28.09-11.55,27.49-110.39-6.36-45.91s-30.44-115.79-45.13-168.67c-20.66-74.43-31.17-83.13-31.17-83.13s-15-15.89-46.66-29.72S961.45,926.39,961.45,926.39Z" style="fill:#cde8cd"></path>
    <path d="M1009.25,1830s10.56-152.9,10.56-242.52-10.56-116-10.56-116-25.16,24.18-76.43,34.85-128.65,7.84-128.65,7.84-67.1-5.67-112.16-22.28-68.09-44.16-68.09-44.16-25.07,76-28.79,142.28c-5.37,95.55,8.75,240,8.75,240h405.37Z" style="fill:#a3c5e1"></path>
    <path d="m1570.8 1111.68-21-3.08s-24.88-30.21-36.6-44.67a26.11 26.11 0 0 0-23.58-9.91l-18.14-24.27s-22.82-57.81-31.59-56.75c-26.41 3.18-1.13 70.09-1.13 70.09l6.21 27.8s-27.57 13.47-37.88 25.29c-11 12.6 3.55 30 3.55 30s-5.14 7.18-2.48 15.31 13.12 17.2 13.12 17.2.72 11.79 5.89 18.11 14.77 7.17 14.77 7.17 2.28 25.87 17.23 25.19 23-4.15 40.18-4.55c9.87-.22 21.35 1.61 30.75.69 22.91-2.26 44.17-10.5 44.17-10.5s6.92-18.91 6.64-40.32S1570.8 1111.68 1570.8 1111.68ZM1109.58 1157.7s-32.19-48.85-34.5-61.58c-8-44.24 3.47-108.64 3.47-108.64s-14.29-10.21-26 10.42a98.1 98.1 0 0 0-13.24 42.89c-1.08 13.35-7.65 29.21-7.65 29.21s-71.31-9.12-94.65.16c-7.73 3.07-1.68 28.47-1.68 28.47s-7.37 5.94-9.25 14.37 1.75 19.37 1.75 19.37-2.41 7.38-2.06 14a33.08 33.08 0 0 0 3.49 12.38s-10.74 22.36 5.36 24.83a252.34 252.34 0 0 1 35.71 8.38c4.92 1.58 30.87 17.8 48.25 24.76a240.51 240.51 0 0 1 29.57 14.13s23.34-7.44 38.7-25.72S1109.58 1157.7 1109.58 1157.7ZM530.79 1028.77l71.43-40.71s22-30.1 39.29-58.64c9-14.9 12.79-37.79 19.68-38.21 13.94-.86 16.7 33.33 8.87 53.4-8.82 22.65-16.66 43.5-16.66 43.5s75.94 38.34 79.75 49.92c4.75 14.44-14.19 24.07-14.19 24.07s5.12 9.1 2.6 17.38-12.68 15.77-12.68 15.77a19.56 19.56 0 0 1-3.25 12.21c-4 5.53-12.6 9.87-12.6 9.87s.89 16.19-12.15 17.35-40-12.73-40-12.73l-25.12-2.88-45.95-12.24-11.49 3.22s-18.24-22.73-24.77-43.12A82.16 82.16 0 0 1 530.79 1028.77ZM1198.66 1621.7s-20.9-2.24-37.12-9a98.78 98.78 0 0 1-27.77-17.91s-22.62 63.84-29 94.22c-1.89 9.07 8.33 21.19 8.52 31s10.75 19.75 10.75 19.75-2.36 14.08 2.92 22.42 18.17 10.93 18.17 10.93l5.72 17.59s31.87 20.73 36.6 11-16.09-27-16.09-27 7.08-57.4 15.33-53.77c1.48.65-1.36 65.86 19.89 61.43 4.81-1 4.51-22.91 6.38-43.25 2.13-23.07 6.08-44.86 6.08-44.86l-18.95-50.72Z" style="fill:#ffddc0"></path>
    <path d="M534.93,1030.44a4.23,4.23,0,0,0,2.26-.65c8.68-5.41,18.64-10.66,28.28-15.74,13.6-7.16,27.66-14.56,38.27-22.55,10.83-8.15,20.48-24.41,26.87-35.16,1.92-3.24,3.57-6,4.85-7.92,10.13-13.88,15.42-27.67,19.28-37.75,4.26-11.13,6-14.72,8.24-13.88,9,3.36,9.82,20.65,6.75,35.29-1.61,7.64-4.48,13.34-7.8,19.94-4.22,8.38-9,17.87-11.77,33.09a4.27,4.27,0,1,0,8.4,1.53c2.55-14,6.84-22.54,11-30.78,3.44-6.83,6.69-13.29,8.54-22,3.63-17.34,2.64-39.55-12.13-45.06-10.48-3.9-14.52,6.64-19.19,18.83-3.7,9.63-8.75,22.82-18.29,35.9-1.51,2.23-3.23,5.12-5.22,8.47-6,10.18-15.17,25.57-24.65,32.7-10.06,7.57-23.82,14.81-37.12,21.82-9.77,5.14-19.88,10.47-28.82,16a4.27,4.27,0,0,0,2.26,7.89Z" style="fill:#56302a"></path>
    <path d="M720.38,1066.79a4.22,4.22,0,0,0,2.84-1.08c1.52-1.35,14.86-13.54,15.87-24.26,2.25-15.85-62.19-50.92-97.89-60a4.27,4.27,0,1,0-2.1,8.28c39.68,10.07,90.27,42.81,91.51,51-.55,5.54-8.31,14.39-13.07,18.65a4.27,4.27,0,0,0,2.84,7.45Z" style="fill:#56302a"></path>
    <path d="M707.45,1100.36a4.24,4.24,0,0,0,2.56-.86c9.62-7.24,18.72-19.15,15.39-30.89-5.4-19.25-41.63-46.84-45.75-49.92a4.27,4.27,0,1,0-5.12,6.83c10.54,7.9,38.74,31.45,42.66,45.41,2.15,7.6-5.29,16.47-12.31,21.75a4.27,4.27,0,0,0,2.57,7.68Z" style="fill:#56302a"></path>
    <path d="M693.27,1121.24a4.18,4.18,0,0,0,1.47-.26c7.46-2.73,19.4-10.58,16.89-22.73-2.58-12.47-34.8-43.27-41.23-49.32a4.27,4.27,0,1,0-5.85,6.22c14.13,13.29,37.14,37.21,38.72,44.83,1.64,8-11.33,12.93-11.46,13a4.27,4.27,0,0,0,1.46,8.28Z" style="fill:#56302a"></path>
    <path d="M678.11 1140.4c6.12 0 13.12-4.76 16.81-9.91 3.29-4.6 4-9.5 1.81-13.44-8-14.26-37.77-36.63-39-37.58a4.27 4.27 0 0 0-5.11 6.84c8.21 6.14 30.82 24.38 36.67 34.86.73 1.35-.79 3.67-1.28 4.35-3 4.17-8.18 6.68-10.26 6.31s-6.14-2.18-10.55-4.13c-9.33-4.13-20.94-9.26-30.91-9.45-8.54.2-40.15-8.87-57.15-13.77l-5.94-1.71c-3.12-.91-8.27-.15-15.27 2.26a4.27 4.27 0 0 0 2.77 8.08c5.74-2 9.26-2.35 10.14-2.13l5.93 1.7c26.32 7.6 50.59 14.35 59.58 14.1 8 .16 19.22 5.11 27.39 8.73 5.34 2.36 9.55 4.22 12.57 4.74A11.14 11.14 0 0 0 678.11 1140.4ZM1168.06 1290a4.19 4.19 0 0 0 1-.13 4.27 4.27 0 0 0 3.09-5.19c-11.41-45-32.83-86.11-39.87-99.61l-.2-.39c-4-7.73-8.94-15.4-12.89-21.57-2.86-4.48-5.33-8.34-6.74-11.06a4.27 4.27 0 0 0-7.58 3.93c1.59 3.06 4.16 7.08 7.13 11.73 4 6.34 8.65 13.53 12.51 20.92l.2.39c6.92 13.28 28 53.7 39.16 97.76A4.28 4.28 0 0 0 1168.06 1290Z" style="fill:#56302a"></path>
    <path d="M1106.85,1160.67a4.2,4.2,0,0,0,2-.48,4.27,4.27,0,0,0,1.82-5.76c-3.8-7.33-7.71-14.25-11.5-20.93-7-12.4-13.64-24.12-18.31-36.32-4.24-11.08-3.8-29-3.52-40.8.1-3.89.18-7.26.09-9.79-1.14-16.31,1.59-30.17,3.57-40.29,2.52-12.82,4.7-23.89-6.26-26.15-15.42-3.19-28.07,15.1-34.21,31.73-3.07,8.38-3.75,15.57-4.47,23.19-.86,9.19-1.75,18.69-7,31.92a4.27,4.27,0,1,0,7.93,3.17c5.74-14.37,6.74-25,7.62-34.29.69-7.36,1.29-13.71,4-21,5.18-14,15-28.23,24.47-26.31,2.28.47,1.9,4.44-.4,16.13-2.08,10.59-4.93,25.09-3.71,42.38.07,2.13,0,5.38-.1,9.15-.31,12.5-.77,31.4,4.07,44s11.68,24.78,18.86,37.47c3.75,6.63,7.62,13.47,11.35,20.67A4.28,4.28,0,0,0,1106.85,1160.67Z" style="fill:#56302a"></path>
    <path d="M936.3,1102.71a4.37,4.37,0,0,0,1.18-.17,4.27,4.27,0,0,0,2.92-5.29c-1.78-6.15-3.65-17.77-1.13-22.79,5.33-6.2,65.58-7.06,104.55,5.5a4.28,4.28,0,0,0,2.62-8.14c-35.06-11.28-108.28-15.81-114.89-1-4.75,9.45.08,26.86.65,28.81A4.27,4.27,0,0,0,936.3,1102.71Z" style="fill:#56302a"></path>
    <path d="M929.42,1138a4.27,4.27,0,0,0,4-5.8c-3.14-8.21-4.73-19.68,1.12-25,10.75-9.76,47.15-14.73,60.27-15.81a4.27,4.27,0,0,0-.71-8.52c-5.13.43-50.48,4.55-65.3,18-9,8.16-7.66,23.09-3.36,34.34A4.28,4.28,0,0,0,929.42,1138Z" style="fill:#56302a"></path>
    <path d="M930.34,1163.23a4.22,4.22,0,0,0,2.61-.9,4.27,4.27,0,0,0,.75-6c-.07-.1-8.47-11.17-2.8-17.08,5.37-5.62,37.58-13.66,56.61-17.41a4.27,4.27,0,1,0-1.65-8.38c-8.66,1.71-52.32,10.68-61.13,19.88-8.59,9-2.64,22,2.23,28.23A4.27,4.27,0,0,0,930.34,1163.23Z" style="fill:#56302a"></path>
    <path d="M1048.89 1235.08a4.27 4.27 0 0 0 3.53-6.66c-3.83-5.67-11.23-7.4-16.13-8.54-.93-.22-1.77-.42-2.49-.62-16.94-4.9-47.15-23.09-55.65-28.81-8.73-5.24-21.3-7.07-31.4-8.53-4.77-.69-9.28-1.34-11.13-2.1s-5-5.68-5.34-10.8c0-.83-.11-3.61 1.27-4.39 10.5-5.75 39.33-9.19 49.55-10a4.27 4.27 0 0 0-.7-8.52c-1.57.13-38.72 3.25-53 11.08-3.95 2.22-6 6.72-5.64 12.37.42 7 4.51 15.67 10.61 18.18 2.84 1.16 7.39 1.82 13.16 2.66 8.85 1.28 21 3 28 7.28 9 6 39.73 24.57 57.87 29.81.84.24 1.83.47 2.91.72 3.81.89 9 2.11 11 5A4.26 4.26 0 0 0 1048.89 1235.08ZM2261.17 842.72l.54 0a4.28 4.28 0 0 0 3.7-4.77c-.17-1.33-.31-2.86-.47-4.55-1-11.1-2.74-29.67-16.17-48.4l-.19-.24c-10.34-12.44-24.33-27.47-37.85-42-8.49-9.14-16.52-17.77-23.16-25.23-7.48-8.41-13.12-24.48-16.84-35.11-1.23-3.51-2.29-6.54-3.23-8.77-6.5-14.14-8.74-27.39-10.38-37.06-2.09-12.39-3.92-23.08-14.62-21.37-15 2.39-20.11 23-20 40 .09 8.53 1.91 15.18 3.84 22.23 2.33 8.46 4.73 17.22 4.48 30.77a4.26 4.26 0 0 0 4.19 4.34 4.31 4.31 0 0 0 4.34-4.19c.28-14.77-2.41-24.55-4.77-33.18-1.86-6.78-3.47-12.63-3.54-20-.11-14.16 3.83-30.07 12.78-31.5 2.07-.31 3 3.49 4.85 14.36 1.72 10.15 4.07 24 11 39.07.78 1.86 1.8 4.78 3 8.16 3.95 11.27 9.91 28.29 18.52 38 6.7 7.53 14.76 16.19 23.29 25.36 13.4 14.41 27.25 29.3 37.44 41.53 12 16.8 13.51 33.21 14.52 44.08.17 1.81.32 3.43.5 4.84A4.27 4.27 0 0 0 2261.17 842.72Z" style="fill:#56302a"></path>
    <path d="M2059,771.73a4.28,4.28,0,0,0,3.41-6.84c-3.63-4.85-9.19-14.51-8.64-19.78,2.92-7.45,55.36-28.19,94.84-30.16a4.27,4.27,0,0,0-.43-8.53c-35.11,1.75-102,22.5-102.92,38-1.06,10.1,9.16,24,10.32,25.6A4.29,4.29,0,0,0,2059,771.73Z" style="fill:#56302a"></path>
    <path d="M2064.81,805.52a4.27,4.27,0,0,0,3.19-7.11c-5.52-6.21-10.77-15.81-7.38-22.4,6.26-12.27,37-28.93,48.29-34.32a4.27,4.27,0,1,0-3.67-7.71c-4.43,2.11-43.53,21.1-52.22,38.14-5.35,10.41.93,23.34,8.6,32A4.26,4.26,0,0,0,2064.81,805.52Z" style="fill:#56302a"></path>
    <path d="M2074.12,827.68a4.27,4.27,0,0,0,2.23-7.91c-.1-.06-11.12-7.13-8.18-14,2.73-6.41,27.67-24,44.51-34.51a4.27,4.27,0,0,0-4.51-7.25c-7.15,4.45-43.08,27.2-47.86,38.42-4.69,11,5.07,20.67,11.58,24.65A4.24,4.24,0,0,0,2074.12,827.68Z" style="fill:#56302a"></path>
    <path d="M2193.14 857.06a4.27 4.27 0 0 0 4.26-4 10.75 10.75 0 0 0-2.9-8.42 9.64 9.64 0 0 0-7.86-2.57c-16.73 1.33-49.75-4.69-59.24-6.91-9.6-1.75-21.44.87-31 3-4.47 1-8.65 1.91-10.58 1.87s-6.28-3.39-8.22-7.71c-.31-.7-1.27-3.06-.37-4.13 7.38-8.63 31.89-21.39 40.7-25.58a4.27 4.27 0 1 0-3.66-7.72c-1.36.65-33.45 16-43.56 27.79-2.83 3.37-3.14 8.15-.9 13.15 2.76 6.12 9.41 12.55 15.77 12.73 2.93.07 7.23-.86 12.67-2.07 8.3-1.83 19.66-4.34 27.36-3 10 2.36 43.72 8.51 61.68 7.07a1.81 1.81 0 0 1 1.18.16 2.61 2.61 0 0 1 .36 1.76 4.26 4.26 0 0 0 4 4.54ZM1408.55 1128.12a4.28 4.28 0 0 0 3.54-6.66c-.47-.69-11.31-17.28 1.31-26.51 23.72-17.37 65.27-41.44 82.55-36.66 11.38 3.16 21.8 17.35 31 29.86 6.85 9.33 13.32 18.14 20 22.26 7.42 4.08 16 5.15 23.51 5.68a4.27 4.27 0 0 0 .6-8.52c-9.29-.65-15.21-2-19.82-4.54-5.1-3.14-11.09-11.3-17.43-19.93-10-13.63-21.37-29.08-35.6-33-27.19-7.57-87.33 36.13-89.87 38-15.41 11.28-8.93 29.91-3.35 38.19A4.26 4.26 0 0 0 1408.55 1128.12Z" style="fill:#56302a"></path>
    <path d="M1419.74,1161.72a4.24,4.24,0,0,0,1.9-.45c.44-.22,44.26-21.91,77.21-25.07a4.27,4.27,0,1,0-.81-8.5c-30.23,2.9-67.55,19.87-77.65,24.68-4.91-4.49-9.31-10.48-9.25-15.18,0-1.41.37-3.54,3.32-5.81,11.8-9.09,45.08-26.54,74.38-34.32a4.27,4.27,0,1,0-2.19-8.25c-30.37,8.06-65,26.29-77.4,35.8-4.29,3.31-6.6,7.62-6.65,12.48-.13,11,11,20.9,14.45,23.67A4.33,4.33,0,0,0,1419.74,1161.72Z" style="fill:#56302a"></path>
    <path d="M1439.57,1187.21l1,0c6-.29,12.92-2.35,21-4.74,10.22-3,22.94-6.77,38.53-8.45a4.27,4.27,0,0,0-.91-8.49c-16.36,1.76-29.49,5.64-40.05,8.75-7.85,2.32-14,4.16-19,4.4a12.74,12.74,0,0,1-10.06-4.57c-3.31-3.62-5-8.5-4.65-10.95A4.27,4.27,0,1,0,1417,1162c-.74,5.34,2.06,12.7,6.8,17.89A21.36,21.36,0,0,0,1439.57,1187.21Z" style="fill:#56302a"></path>
    <path d="M1463 1213.13c4 0 8.84-.85 14.84-1.91 11.55-2 25.91-4.57 42.58-2.54 13.14 2 24.54-1.17 36.61-4.56 5.21-1.46 10.59-3 16.51-4.21a4.27 4.27 0 0 0-1.74-8.36c-6.2 1.29-11.73 2.85-17.07 4.35-11.64 3.26-21.7 6.1-33.14 4.33-18.06-2.21-33.77.56-45.23 2.58-5.71 1-10.63 1.89-13.92 1.77-12.88-.45-15.94-13.78-16.57-17.86a4.27 4.27 0 0 0-8.44 1.31c1.82 11.77 9.27 24.54 24.72 25.08ZM1444 1072.66h.24a4.27 4.27 0 0 0 4-4.5c-.72-12.74-4.91-24.68-9-36.23-4.78-13.64-9.3-26.51-7.5-39 1.54-10.72 5.52-14.83 8.46-15.09s7.23 3.09 9.85 11c6.89 21.81 21.69 57.39 34.15 65.83a4.27 4.27 0 0 0 4.79-7.08c-9-6.07-23-36.59-30.82-61.37-3.67-11.15-10.85-17.57-18.72-16.93-8.2.73-14.25 9.09-16.16 22.38-2.11 14.59 3 29.07 7.89 43.07 3.86 11 7.85 22.36 8.5 33.89A4.27 4.27 0 0 0 1444 1072.66ZM1531 1165.84a4.28 4.28 0 0 0 4.27-4.13c.39-12.46-2.57-19.63-5-25.39-1.83-4.44-3-7.37-2.26-11.51 1.56-9.25-3.85-17.2-8.63-24.21-2.67-3.91-5.18-7.6-5.85-10.61a47.38 47.38 0 0 1-1-12.53c.1-8.17.2-16.62-9.88-24.45a4.27 4.27 0 1 0-5.24 6.74c6.73 5.23 6.67 10.15 6.58 17.6a54.38 54.38 0 0 0 1.24 14.61c1 4.5 4 8.85 7.1 13.44 4.06 6 8.26 12.13 7.28 17.9-1.24 6.56.71 11.28 2.78 16.27 2.17 5.27 4.64 11.25 4.3 21.87a4.26 4.26 0 0 0 4.13 4.4ZM1379.31 856c16.66 0 61.2-10.3 89.84-48.26 15.46-21.31 24-49 30.28-73.35a4.27 4.27 0 1 0-8.26-2.14c-6.11 23.54-14.31 50.32-28.89 70.41-27.72 36.75-72.53 45.78-84.83 44.73a4.27 4.27 0 1 0-.72 8.51C1377.49 856 1378.36 856 1379.31 856Z" style="fill:#56302a"></path>
    <path d="M1454.71 877.2a5.38 5.38 0 0 1-.24-.55c-5.48-14.86-7.52-48.57-6.35-55.91a4.27 4.27 0 1 1 8.43 1.35c-1 6.15 1.15 38.22 5.82 51.31 3.36 5.73 12.73 3.5 12.82 3.48a4.27 4.27 0 0 1 2.11 8.28 28.34 28.34 0 0 1-6.32.7C1465.74 885.86 1458.57 884.39 1454.71 877.2Zm3.74-2h0ZM1302.53 904.82a4.08 4.08 0 0 0 1.14-.16c3.89-1.07 15.73-4.36 17-19.39 1-10.95-.5-28.6-1.66-42.79-.61-7.31-1.13-13.63-1.24-17.88a4.28 4.28 0 0 0-4.27-4.15h-.12a4.28 4.28 0 0 0-4.15 4.39c.12 4.48.65 10.9 1.26 18.34 1.14 13.87 2.57 31.12 1.67 41.35-.66 7.57-4.8 10.24-10.81 11.9a4.27 4.27 0 0 0 1.14 8.39Z" style="fill:#56302a"></path>
    <path d="M1378.18 856h.51a4.27 4.27 0 0 0 4.18-4.36 4.31 4.31 0 0 0-4.36-4.18c-12.31.3-56.49-11.56-81.88-50.06-10.48-16.54-18.71-40.14-25.11-72.08a4.27 4.27 0 1 0-8.38 1.68c4.22 21 11.54 51.71 26.31 75C1316.85 843.53 1363.45 856 1378.18 856ZM1379.23 811.24c-32.22-.17-37.56-43.92-37.76-45.79a4.28 4.28 0 0 1 4.54-4.74c.19 0 19 1.36 36.16 1.9h0c17.87.57 34.5.35 34.67.34a4.33 4.33 0 0 1 3.37 1.58 4.25 4.25 0 0 1 .86 3.62c-.39 1.76-9.91 43.1-41.64 43.09Zm2.68-40.09h0c-11.68-.37-24.12-1.11-31.05-1.55 2.25 10.39 9.34 33 28.42 33.1s28.52-21.07 31.92-31.17C1404.73 771.55 1393.57 771.52 1381.91 771.15ZM1492 751.88a4.34 4.34 0 0 0 .8-.08C1513 748 1526 736.62 1531.23 718c3.7-13.44 1.41-26.38-6.09-34.64-6.37-7-15.74-9.85-26.38-8a4.27 4.27 0 1 0 1.46 8.41c7.77-1.35 14.2.48 18.59 5.32 5.54 6.09 7.1 16 4.2 26.6-4.37 15.39-14.76 24.45-31.77 27.67a4.27 4.27 0 0 0 .79 8.47Z" style="fill:#56302a"></path>
    <path d="M1498.41 718a4.25 4.25 0 0 0 3.64-2 28.38 28.38 0 0 1 7.35-7.51 4.27 4.27 0 1 0-4.74-7.1 36.46 36.46 0 0 0-9.88 10.14 4.26 4.26 0 0 0 3.63 6.5ZM1267.91 743.29a4.27 4.27 0 0 0 1.1-8.4c-14.85-4-24.2-13.72-27.78-28.91-2.17-9.64-.29-18.88 5-24.66 4.38-4.74 10.55-6.7 17.86-5.65a4.27 4.27 0 0 0 1.21-8.45c-10.06-1.44-19.06 1.51-25.34 8.31-7.25 7.84-9.9 19.94-7.09 32.37 5.44 23.07 21.43 31.89 33.89 35.24A4.24 4.24 0 0 0 1267.91 743.29Z" style="fill:#56302a"></path>
    <path d="M1264.44 709.05a4.26 4.26 0 0 0 3.77-6.26 36.64 36.64 0 0 0-9.23-10.74 4.27 4.27 0 0 0-5.18 6.78 28.31 28.31 0 0 1 6.87 8A4.27 4.27 0 0 0 1264.44 709.05ZM1519.06 688.29a4.27 4.27 0 0 0 4-2.67c1.58-3.91 38.19-96.4-4.57-160.28-26-38.9-56.72-46.44-58-46.74a4.27 4.27 0 0 0-2 8.31c.32.08 28.91 7.28 52.87 43.18 40.27 60.16 4.12 151.41 3.75 152.33a4.28 4.28 0 0 0 2.36 5.56A4.33 4.33 0 0 0 1519.06 688.29ZM1244.89 679.63a4.19 4.19 0 0 0 1.3-.2 4.27 4.27 0 0 0 2.78-5.36c-.4-1.25-38.74-125.68 42.3-184.15 43.69-31.58 117.91-30.92 139.36-7.38a4.27 4.27 0 0 0 6.31-5.75c-26.89-29.51-105.74-26.26-150.67 6.21-86.08 62.1-45.86 192.35-45.44 193.66A4.26 4.26 0 0 0 1244.89 679.63ZM1380.83 744.58a4.28 4.28 0 0 0 3.16-7.14c-6.73-7.44-7.31-10.36-7.25-11.27s1.33-2.08 3.41-3.81c3.4-2.85 8.06-6.75 9.69-14.36.86-5.41-.14-12.09-.94-17.46-.25-1.64-.48-3.15-.62-4.43a4.27 4.27 0 0 0-8.49.94c.16 1.38.4 3 .66 4.75.72 4.79 1.61 10.76 1 14.64-1 4.51-3.8 6.87-6.78 9.37s-6.13 5.12-6.45 9.77 2.5 9.93 9.44 17.59A4.26 4.26 0 0 0 1380.83 744.58ZM1313.15 631a4.25 4.25 0 0 0 1.86-.43c.14-.07 14.65-6.84 29-.43a4.27 4.27 0 1 0 3.48-7.8c-18-8.06-35.48.19-36.21.54a4.27 4.27 0 0 0 1.86 8.12ZM1453.23 636.18a4.27 4.27 0 0 0 2.1-8c-.71-.4-17.58-9.73-36.1-2.83a4.27 4.27 0 0 0 3 8c14.85-5.54 28.79 2.18 28.92 2.26A4.34 4.34 0 0 0 1453.23 636.18ZM1372.17 634.38a4.37 4.37 0 0 0 1.46-.26c25.12-9.14 47.65-38.91 37.76-82.69a4.27 4.27 0 1 0-8.33 1.88c8.75 38.74-10.63 64.89-32.35 72.78a4.27 4.27 0 0 0 1.46 8.29Z" style="fill:#56302a"></path>
    <path d="M1310.7 640.15c14.92 0 31-6.14 43.31-16.73 12-10.37 18.85-23.86 19.3-38a4.27 4.27 0 0 0-8.54-.27c-.37 11.73-6.17 23-16.35 31.81-12 10.34-28.71 16-42.65 14.38a4.27 4.27 0 0 0-1 8.49A52.37 52.37 0 0 0 1310.7 640.15ZM1277.52 665.6c18.12 0 26.27-15.4 26.63-16.1a4.27 4.27 0 0 0-7.58-3.92c-.31.58-7.1 13-21.93 11.3a4.27 4.27 0 0 0-1 8.49A34.36 34.36 0 0 0 1277.52 665.6ZM1465.2 643.23a63.25 63.25 0 0 0 7.26-.43 4.27 4.27 0 1 0-1-8.48c-35.35 4-47.4-26.18-48.69-34.48a4.27 4.27 0 1 0-8.43 1.31C1416.62 615.61 1431.93 643.23 1465.2 643.23ZM1488.75 671.4a26.7 26.7 0 0 0 6.06-.69 4.27 4.27 0 1 0-1.94-8.32c-9.6 2.22-20.37-4.23-24.41-11.68a4.26 4.26 0 0 0-7.5 4.06C1465.78 663.67 1476.87 671.4 1488.75 671.4ZM1490.08 501.64a4.28 4.28 0 0 0 4.15-3.26c2.72-11.07 12.42-15.17 18-16.62 11.28-3 23.35-.18 27.54 4.27a4.27 4.27 0 0 0 6.23-5.84c-6.93-7.37-22.37-10.25-35.93-6.69-12.74 3.34-21.3 11.46-24.1 22.85a4.27 4.27 0 0 0 3.13 5.16A4.08 4.08 0 0 0 1490.08 501.64Z" style="fill:#56302a"></path>
    <path d="M1533.37 571.24a3.88 3.88 0 0 0 .67-.06c26.06-4.09 37.23-27.74 34.51-47.91-2.44-18-16.31-34.88-41.74-32a4.27 4.27 0 0 0 1 8.48c21.06-2.38 30.58 11.8 32.31 24.66 2.18 16.16-6.67 35.08-27.37 38.34a4.27 4.27 0 0 0 .66 8.49ZM1282.61 493.57a4 4 0 0 0 .76-.07 4.27 4.27 0 0 0 3.45-4.95c-2.07-11.55-10.1-20.19-22.61-24.33-13.32-4.4-28.91-2.5-36.28 4.41a4.27 4.27 0 1 0 5.85 6.23c4.45-4.18 16.67-6.2 27.75-2.53 5.44 1.8 14.87 6.5 16.88 17.72A4.27 4.27 0 0 0 1282.61 493.57Z" style="fill:#56302a"></path>
    <path d="M1236.56 559.59a4.27 4.27 0 0 0 .76-8.47c-21.11-3.85-29.13-22.65-26.15-39.22 2.36-13.12 12.62-27.09 33.71-23.35a4.27 4.27 0 0 0 1.49-8.41c-25.4-4.51-40.41 12.51-43.6 30.24-3.64 20.24 6.69 44.34 33 49.14A4.08 4.08 0 0 0 1236.56 559.59ZM913.33 874.5c21 0 50.28-5.31 75.83-24.92 20.43-16.28 35.92-40.54 48.39-62.14a4.27 4.27 0 1 0-7.39-4.27c-12.07 20.9-27 44.34-46.26 59.68-36.23 27.81-81.45 24.56-92.94 20.31a4.27 4.27 0 1 0-3 8C892.66 872.9 901.76 874.5 913.33 874.5Z" style="fill:#56302a"></path>
    <path d="M959.13 928.19a4.36 4.36 0 0 0 1.37-.22 4.27 4.27 0 0 0 2.67-5.42 31.28 31.28 0 0 1-1.67-13.19c1.77-14.36 9.8-41.27 12.69-49.54a4.27 4.27 0 0 0-8.06-2.82c-3.08 8.8-11.23 36.11-13.12 51.44a40.4 40.4 0 0 0 2.07 16.85A4.28 4.28 0 0 0 959.13 928.19ZM812.76 884.56a4.23 4.23 0 0 0 2.6-.88 36.85 36.85 0 0 0 9.7-11.13c7.71-14 14.67-40.69 15.44-43.69a4.27 4.27 0 0 0-8.27-2.12c-2.69 10.5-8.8 31.08-14.63 41.65a28 28 0 0 1-7.44 8.52 4.27 4.27 0 0 0 2.6 7.65ZM1032.41 803.49c17.63 0 31.12-7.51 40.16-22.38 7.1-11.88 8.35-24.86 3.35-34.77-4.24-8.4-12.45-13.6-23.14-14.65a4.27 4.27 0 0 0-.83 8.5c7.78.77 13.43 4.22 16.35 10 3.67 7.28 2.53 17.19-3 26.51-8.24 13.55-20.57 19.45-37.67 18a4.27 4.27 0 1 0-.71 8.51C1028.77 803.41 1030.61 803.49 1032.41 803.49Z" style="fill:#56302a"></path>
    <path d="M1042.54 771.81a4.24 4.24 0 0 0 2.91-1.15 27.89 27.89 0 0 1 9-5.23 4.27 4.27 0 0 0-2.67-8.11 36.38 36.38 0 0 0-12.15 7.09 4.27 4.27 0 0 0 2.91 7.4ZM814.88 735.61a4.27 4.27 0 0 0 2.17-8c-13.14-7.74-19.5-19.51-18.9-35 .48-9.79 4.71-18.11 11.33-22.22 5.44-3.37 11.85-3.61 18.55-.68a4.27 4.27 0 0 0 3.42-7.82c-9.25-4.05-18.65-3.61-26.47 1.24-9 5.59-14.75 16.47-15.36 29.11-.91 23.51 12.06 36.19 23.09 42.7A4.3 4.3 0 0 0 814.88 735.61Z" style="fill:#56302a"></path>
    <path d="M820.25 702.11a4.2 4.2 0 0 0 .93-.1 4.27 4.27 0 0 0 3.25-5.09 36.57 36.57 0 0 0-6-12.73 4.27 4.27 0 1 0-6.8 5.16 28.29 28.29 0 0 1 4.45 9.41A4.27 4.27 0 0 0 820.25 702.11ZM890.91 871.89a4.27 4.27 0 0 0 1.06-8.41c-11.89-3-51-26-65-69.54-5.64-18.6-7.26-43.34-4.92-75.56a4.27 4.27 0 0 0-4-4.57 4.2 4.2 0 0 0-4.57 3.94c-1.54 21.24-2.67 52.51 5.29 78.74 15.39 47.56 57.48 71.8 71.08 75.26A4.27 4.27 0 0 0 890.91 871.89ZM1070.63 749.84a4.27 4.27 0 0 0 3.46-1.76c2.36-3.25 57.48-80.32 33.52-152.68-15.23-44.18-44.33-63.15-45.57-63.93a4.27 4.27 0 0 0-4.6 7.2h0c.28.17 27.89 18.3 42.08 59.46 22.58 68.19-31.79 144.17-32.34 144.93a4.27 4.27 0 0 0 3.45 6.78ZM810 668.74h.22a4.26 4.26 0 0 0 4-4.48C814.21 663 809 538.89 901.9 504.46c50.05-18.59 108.82-11.35 123.31 15.2a4.27 4.27 0 0 0 7.49-4.09c-16.63-30.48-79.14-39.41-133.77-19.12-98.82 36.63-93.25 166.93-93.18 168.24A4.27 4.27 0 0 0 810 668.74ZM922.81 766.84a4.28 4.28 0 0 0 3.81-6.19c-4.46-8.88-4.24-11.82-3.94-12.68s1.81-1.61 4.25-2.72c4-1.82 9.5-4.32 13.09-11.18 2.25-4.94 3.06-11.58 3.72-16.92.2-1.64.38-3.16.59-4.43a4.27 4.27 0 1 0-8.43-1.36c-.22 1.36-.43 3-.64 4.75-.58 4.76-1.31 10.68-2.92 14.22-2.12 4-5.44 5.55-9 7.15s-7.22 3.29-8.76 7.65-.24 10.18 4.36 19.35A4.27 4.27 0 0 0 922.81 766.84ZM920.42 648a4.27 4.27 0 0 0 2.72-7.56c-15.14-12.5-34-9.23-34.8-9.08a4.27 4.27 0 1 0 1.53 8.4c.15 0 15.82-2.65 27.83 7.27A4.3 4.3 0 0 0 920.42 648ZM1021 681.63a4.28 4.28 0 0 0 3-7.3c-.57-.57-14.27-14-33.81-12.27a4.27 4.27 0 0 0 .74 8.51c15.68-1.33 26.93 9.7 27 9.81A4.27 4.27 0 0 0 1021 681.63ZM903.16 828.65c-30-8.47-24.29-51.91-24-53.75a4.27 4.27 0 0 1 5.66-3.43c.17.06 17.13 6.11 34.07 11.38h0c16.94 5.27 32.91 9.47 33.06 9.51a4.27 4.27 0 0 1 2.66 6.2c-.79 1.41-17.69 31.32-42.65 31.32A32.25 32.25 0 0 1 903.16 828.65ZM916.32 791h0c-11.37-3.54-22.74-7.42-29.15-9.65-.43 10.64.67 34.1 18.31 39.07S938 807.86 944.1 799.1C937.88 797.39 927.3 794.42 916.32 791Zm1.24-4.08h0ZM1052.26 722.85a4.27 4.27 0 0 0 2.29-7.87c-12.07-7.7-10.3-24.75-10.28-24.93a4.27 4.27 0 0 0-8.49-.95c-.1.92-2.33 22.55 14.18 33.08A4.21 4.21 0 0 0 1052.26 722.85ZM1054 681.68a4.27 4.27 0 0 0 2-8.06c-17.1-9-16-21.42-14.67-35.85 1.44-15.92 3.07-34-24.72-42.62a4.27 4.27 0 1 0-2.53 8.15c21.2 6.6 20.17 18 18.75 33.7-1.31 14.51-2.95 32.57 19.2 44.19A4.29 4.29 0 0 0 1054 681.68ZM1002 590.68a4.25 4.25 0 0 0 3.43-1.72c.27-.35 7.13-9.19 19-9.43a4.27 4.27 0 0 0 4.18-4.35 4.32 4.32 0 0 0-4.35-4.19c-16.17.33-25.32 12.35-25.71 12.87a4.27 4.27 0 0 0 3.42 6.82Z" style="fill:#56302a"></path>
    <path d="M897.14 616.1c21.06 0 35.83-16.36 48.17-30 8.62-9.55 16.71-18.57 24-18 4.88.39 10.32 5.18 16.16 14.24a4.27 4.27 0 0 0 7.17-4.63C985.09 566 977.89 560.21 970 559.57c-11.53-.88-21 9.62-31 20.78-15 16.58-30.46 33.72-55.11 24.67a4.27 4.27 0 1 0-2.94 8A46.81 46.81 0 0 0 897.14 616.1ZM1041.54 532.09a4.25 4.25 0 0 0 3.3-1.57c.39-.48 9.35-11.77 2.19-25.41a4.27 4.27 0 0 0-7.56 4c4.51 8.56-1 15.77-1.27 16.07a4.27 4.27 0 0 0 3.34 6.93ZM841.7 654.81c19.3 0 32.84-27.28 33.42-28.46a4.27 4.27 0 0 0-7.67-3.75c-3.26 6.64-14.17 23.67-25.76 23.67h-.41a4.21 4.21 0 0 0-4.42 4.12 4.26 4.26 0 0 0 4.11 4.41ZM1850.82 843.7c15.59 0 61-10.94 89.34-49.51 14.76-21 22.43-48.18 28-72a4.27 4.27 0 1 0-8.32-1.94c-5.38 23.06-12.75 49.28-26.61 69-26.82 36.51-71.15 46.54-83.43 45.94a4.27 4.27 0 1 0-.44 8.52C1849.81 843.69 1850.29 843.7 1850.82 843.7Z" style="fill:#56302a"></path>
    <path d="M1937.68 838.28a4.35 4.35 0 0 0 1.72-.36 4.28 4.28 0 0 0 2.19-5.63c-3.78-8.55-9.83-24.07-10-29.31a4.27 4.27 0 0 0-8.54.24c.24 8.62 9.63 30.1 10.69 32.52A4.28 4.28 0 0 0 1937.68 838.28ZM1811 884.78a4.08 4.08 0 0 0 .77-.07 4.28 4.28 0 0 0 3.44-5c-4.2-23.1-28.89-69.12-29.94-71.06a4.27 4.27 0 1 0-7.52 4.05c.25.46 25.1 46.77 29.06 68.54A4.27 4.27 0 0 0 1811 884.78ZM1961.72 740.62a4.9 4.9 0 0 0 .93-.1c20.08-4.47 32.63-16.23 37.32-35 3.27-13.54.58-26.4-7.19-34.43-6.58-6.8-16-9.34-26.62-7.16a4.27 4.27 0 0 0 1.73 8.37c7.73-1.6 14.21 0 18.75 4.73 5.73 5.91 7.61 15.8 5 26.46-3.88 15.52-14 24.9-30.87 28.66a4.27 4.27 0 0 0 .92 8.44Z" style="fill:#56302a"></path>
    <path d="M1967 705.76a4.27 4.27 0 0 0 3.71-2.15 28.07 28.07 0 0 1 7.11-7.74 4.27 4.27 0 1 0-5-7 36.66 36.66 0 0 0-9.56 10.45 4.27 4.27 0 0 0 3.71 6.39ZM1737.44 739.1a4.27 4.27 0 0 0 1-8.43c-15-3.52-24.62-12.95-28.68-28-2.48-9.57-.89-18.86 4.26-24.8 4.22-4.88 10.35-7 17.67-6.21a4.27 4.27 0 1 0 .94-8.49c-10.11-1.12-19 2.11-25.07 9.11-7 8.06-9.25 20.24-6.06 32.57 6.16 22.88 22.43 31.2 35 34.16A4.67 4.67 0 0 0 1737.44 739.1Z" style="fill:#56302a"></path>
    <path d="M1732.89 704.24a4.26 4.26 0 0 0 3.7-6.38 36.34 36.34 0 0 0-9.56-10.45 4.27 4.27 0 0 0-5 6.94 28.32 28.32 0 0 1 7.12 7.76A4.29 4.29 0 0 0 1732.89 704.24ZM1849.86 843.7c.52 0 1 0 1.46 0a4.27 4.27 0 1 0-.45-8.52c-12.31.61-56.61-9.44-83.48-46-14.57-20.71-22.57-49.27-27.32-68.94a4.27 4.27 0 0 0-8.3 2c4.91 20.35 13.23 49.95 28.69 71.93C1788.84 832.75 1834.27 843.7 1849.86 843.7ZM1987.49 676.21a4.27 4.27 0 0 0 4-2.92c.28-.86 7-21.4 9.31-57.15a4.27 4.27 0 0 0-8.53-.55c-2.21 34.66-8.82 54.8-8.88 55a4.27 4.27 0 0 0 4 5.63ZM2007.2 608a4.26 4.26 0 0 0 3.61-6.53c-5.43-8.7-6.17-16.66-6.94-25.08-.23-2.42-.45-4.85-.78-7.32-3.67-22.93-10.88-41.16-22-55.83-27.16-36.47-58.09-43-59.39-43.27a4.27 4.27 0 0 0-1.69 8.37c.42.09 29.2 6.4 54.25 40 10.33 13.56 17 30.53 20.43 51.93.3 2.24.51 4.56.72 6.86.84 9.05 1.7 18.41 8.21 28.83A4.27 4.27 0 0 0 2007.2 608ZM1714.7 673.93a4.27 4.27 0 0 0 3.89-6c-.19-.42-19-42.63-8-93.56a4.27 4.27 0 1 0-8.35-1.79c-11.53 53.8 7.8 97.08 8.63 98.9A4.25 4.25 0 0 0 1714.7 673.93ZM1694.25 564.06a4.26 4.26 0 0 0 2.6-.89c9.47-7.28 13.79-18.11 17.26-26.82.51-1.28 1-2.52 1.5-3.71a111.18 111.18 0 0 1 36.51-46.72c32.35-23.88 82.13-30.32 112.53-24.24 2 .48 4.34 1.12 6.77 1.79 12.57 3.47 28.2 7.8 41.68 0a4.27 4.27 0 0 0-4.28-7.39c-10.37 6-23.53 2.38-35.13-.83-2.53-.7-5-1.37-7.22-1.9-33.15-6.63-84.73.1-119.45 25.73a119.65 119.65 0 0 0-39.29 50.28c-.51 1.23-1 2.52-1.55 3.83-3.25 8.15-6.93 17.37-14.54 23.22a4.27 4.27 0 0 0 2.61 7.66ZM1849.31 779.89c12 0 23.94-2.95 32.1-8.11a4.27 4.27 0 1 0-4.56-7.22c-13.76 8.69-41.1 10-55.73-1.28a4.27 4.27 0 1 0-5.22 6.75C1824.74 776.87 1837.11 779.89 1849.31 779.89ZM1850.34 736.83a4.28 4.28 0 0 0 3.07-7.24c-7-7.22-7.63-10.12-7.6-11s1.26-2.11 3.29-3.91c3.3-3 7.84-7 9.23-14.66.68-5.43-.52-12.06-1.49-17.4-.3-1.63-.57-3.15-.76-4.43a4.27 4.27 0 0 0-8.45 1.21c.19 1.37.49 3 .81 4.75.86 4.76 1.94 10.68 1.45 14.58-.83 4.53-3.58 7-6.48 9.58s-6 5.31-6.13 10 2.81 9.85 10 17.29A4.23 4.23 0 0 0 1850.34 736.83ZM1779.87 624.68a4.26 4.26 0 0 0 2-.49c.13-.07 14.43-7.3 29-1.34a4.27 4.27 0 0 0 3.23-7.91c-18.3-7.48-35.46 1.31-36.18 1.69a4.27 4.27 0 0 0 2 8ZM1919.29 625.44a4.27 4.27 0 0 0 2-8.05c-.72-.38-17.88-9.17-36.18-1.69a4.27 4.27 0 0 0 3.24 7.91c14.66-6 28.84 1.27 29 1.34A4.26 4.26 0 0 0 1919.29 625.44ZM1841.24 606.5a4.56 4.56 0 0 0 .82-.08c12.57-2.46 23.4-10.31 31.29-22.72 10.44-16.41 14.42-39.53 9.92-57.53a4.27 4.27 0 1 0-8.28 2.07c4 15.88.41 36.32-8.85 50.87-4.6 7.24-12.8 16.41-25.71 18.93a4.27 4.27 0 0 0 .81 8.46Z" style="fill:#56302a"></path>
    <path d="M1765.47 630c32.75 0 65.18-24 73.82-54.63a4.27 4.27 0 0 0-8.22-2.32c-7.65 27.15-36.47 48.41-65.6 48.41a4.27 4.27 0 0 0 0 8.54ZM1752 661.52a22.63 22.63 0 0 0 6-.85c9.18-2.52 19-10.68 23.36-19.41a4.27 4.27 0 0 0-7.64-3.82c-2.86 5.73-10.37 12.9-18 15-3.39.93-6.24.68-8.47-.76a4.27 4.27 0 0 0-4.62 7.19A17 17 0 0 0 1752 661.52ZM1952.61 660a20.18 20.18 0 0 0 9.61-2.5 4.27 4.27 0 0 0-4-7.54c-9 4.78-17.65-3.3-23.37-10.91a4.27 4.27 0 1 0-6.83 5.12C1935.84 654.64 1944.32 660 1952.61 660ZM1946.86 630.78a38.73 38.73 0 0 0 11.6-1.75 4.27 4.27 0 0 0-2.55-8.15c-8.64 2.7-18.57 1.33-28-3.86-15.15-8.37-27-25.21-32.56-46.19a4.27 4.27 0 1 0-8.25 2.17c6.13 23.24 19.51 42 36.68 51.49A47.85 47.85 0 0 0 1946.86 630.78ZM1904.14 527.69a4.27 4.27 0 0 0 4.26-4c.07-1 1.48-25-14.39-38.4a4.27 4.27 0 0 0-5.51 6.53c12.61 10.61 11.39 31.1 11.38 31.31a4.26 4.26 0 0 0 4 4.54ZM1886 928.27a4.29 4.29 0 0 0 3.71-6.41c-2.61-4.57-9.81-6.63-20.71-9.75-17.24-4.93-43.29-12.38-56.26-33.42a4.27 4.27 0 0 0-7.27 4.47c14.7 23.87 42.67 31.87 61.18 37.16 6.44 1.84 14.44 4.13 15.66 5.8A4.22 4.22 0 0 0 1886 928.27ZM834.38 1519.11c82.78 0 153.24-19.65 173.74-39.68 4-3.94 6-7.91 6-11.81-.1-6.77-1.11-20.12-2.3-35.59-2.12-27.81-4.77-62.42-3.64-78.43 2.27-32.31 19.64-130.79 19.82-131.78a4.27 4.27 0 0 0-8.41-1.49c-.72 4.07-17.63 99.92-19.93 132.67-1.17 16.63 1.5 51.59 3.65 79.68 1.17 15.33 2.18 28.56 2.28 35.06 0 1.41-1.23 3.44-3.42 5.59-18.19 17.76-93.41 40.46-187.3 36.86-86.87-3.32-161.48-36-181.94-58.29-3.62-3.94-5.54-7.55-5.42-10.16 4.26-88.59 17.63-316.47 17.76-318.76a4.27 4.27 0 1 0-8.52-.5c-.14 2.29-13.5 230.21-17.77 318.85-.24 5.05 2.33 10.54 7.65 16.34 24.63 26.85 103.48 57.83 187.91 61.06C821.21 1519 827.84 1519.11 834.38 1519.11Z" style="fill:#56302a"></path>
    <path d="M1039.88 1307.66a4.66 4.66 0 0 0 .9-.09 4.28 4.28 0 0 0 3.27-5.08l-15.93-73.34a4.27 4.27 0 1 0-8.35 1.81l15.94 73.34A4.26 4.26 0 0 0 1039.88 1307.66ZM603.9 1830h.3a4.27 4.27 0 0 0 4-4.56c-1.83-26.15-7.95-118-10-202.11-1.78-74.37 29.41-176.5 29.73-177.53a4.27 4.27 0 1 0-8.16-2.51c-.32 1-31.92 104.47-30.11 180.24 2 84.27 8.15 176.31 10 202.51A4.27 4.27 0 0 0 603.9 1830ZM1009.61 1829.62a4.27 4.27 0 0 0 4.26-4l1.36-25.37c3.15-58.34 8.43-156 8.89-199.92.9-84.28-10-127.68-10.42-129.49a4.27 4.27 0 1 0-8.27 2.12c.11.43 11 44.27 10.15 127.28-.46 43.75-5.73 141.28-8.88 199.55l-1.36 25.37a4.28 4.28 0 0 0 4 4.5ZM812 1829.84a4.27 4.27 0 0 0 4.25-3.88c2.6-28.24 6.52-70.92 10.74-92.11 1.28-6.48 13.7-13.59 21.22-16.55a4.27 4.27 0 0 0-3.12-8c-2.43 1-23.87 9.71-26.48 22.83-4.31 21.63-8.25 64.58-10.87 93a4.27 4.27 0 0 0 3.87 4.64A2.55 2.55 0 0 0 812 1829.84ZM1781.2 1122.73a4.27 4.27 0 0 0 1.43-8.3c-27.57-9.77-206.8-10.2-214.42-10.21h0a4.27 4.27 0 0 0 0 8.54c64 .11 190.61 2.29 211.58 9.72A4.17 4.17 0 0 0 1781.2 1122.73Z" style="fill:#56302a"></path>
    <path d="M1766 1247.13c28.19 0 53-6.2 69.29-18 11.07-8 17.67-18.42 19.06-30.12 5-41.7-124.56-235.67-218.09-312.75-30.61-25.23-73.2-21.39-114.21-15.29a4.27 4.27 0 0 0 1.26 8.44c39.1-5.81 79.61-9.56 107.52 13.44 95.89 79 219.28 269.54 215 305.15-1.12 9.4-6.36 17.55-15.58 24.21-22 15.89-63.27 20.64-105.24 12.13-43.73-8.88-123.19-32-146.78-38.9 2.38-3.56 4.72-9 5.52-17.32 4.28-44-4-66.72-13.1-73.27a4.27 4.27 0 0 0-5 6.94c5.54 4 13.78 22.23 9.58 65.5-1.26 13-6.78 16.33-7 16.46a4.38 4.38 0 0 0-2.18 4.23 4.24 4.24 0 0 0 3 3.63c1 .31 102.42 30.57 154.3 41.1A216.09 216.09 0 0 0 1766 1247.13ZM1240.57 1169.52h.28a4.26 4.26 0 0 0 4-4.54c-1.28-19.76-2.76-35.09-4.88-54.9-3.61-33.83-6-58.88-6-59.13a4.27 4.27 0 1 0-8.5.8c0 .25 2.38 25.34 6 59.24 2.11 19.69 3.57 34.94 4.85 54.55A4.27 4.27 0 0 0 1240.57 1169.52Z" style="fill:#56302a"></path>
    <path d="M1228.08 1829.79a4.26 4.26 0 0 0 4.25-4c.08-1.07 8-108.57 15.24-203.24 3.32-43 7.78-80.81 11.37-111.16 3.83-32.39 6.6-55.79 5.89-68.11-2.74-48.48-8.59-107.32-13.73-159.23-2.72-27.35-5.28-53.18-7-73.7-1-11.56-1.16-23.32-1.3-31.92 0-2.47-.08-4.7-.13-6.61 10.11-2 50.26-4 86-5.77 31.6-1.54 64.27-3.15 88.57-5.15a4.27 4.27 0 0 0-.7-8.52c-24.16 2-56.76 3.6-88.29 5.14-23.83 1.17-46.34 2.27-63 3.45-28.77 2-31.43 3.31-31.21 8.32.1 2.33.15 5.52.22 9.29.14 8.71.34 20.64 1.33 32.49 1.72 20.58 4.29 46.44 7 73.82 5.14 51.83 11 110.58 13.71 158.87.66 11.58-2.07 34.67-5.85 66.63-3.6 30.43-8.08 68.3-11.4 111.5-7.3 94.7-15.16 202.2-15.25 203.28a4.27 4.27 0 0 0 4 4.57ZM1688.64 1829.5h.1a4.27 4.27 0 0 0 4.17-4.37c-.19-8-4.86-196.83-16.58-261.57-6.37-35.18-16.58-73.77-24-102-4.73-17.87-8.47-32-9.9-40-2.85-15.89-4.51-39.22-6.8-71.51-.73-10.29-1.52-21.42-2.43-33.42-2.4-31.6-4.13-64.3-5.44-102.91a4.27 4.27 0 0 0-8.54.29c1.32 38.73 3.06 71.55 5.46 103.27.91 12 1.7 23.1 2.43 33.38 2.31 32.55 4 56.07 6.92 72.41 1.49 8.31 5.26 22.57 10 40.64 7.42 28 17.58 66.45 23.89 101.29 11.6 64.1 16.39 258.3 16.44 260.26A4.28 4.28 0 0 0 1688.64 1829.5ZM1622.35 1113.05h.19a4.28 4.28 0 0 0 4.08-4.45c-.1-2.15-.12-5.56-.15-9 0-3.94 0-8-.19-10.45a4.27 4.27 0 1 0-8.52.47c.12 2.23.15 6.2.17 10 0 3.58.06 7.11.16 9.33A4.27 4.27 0 0 0 1622.35 1113.05Z" style="fill:#56302a"></path>
    <path d="M1651 1113.82a4.27 4.27 0 0 0 2.71-7.57c-12.64-10.41-35.18-27.39-44-24.14a4.27 4.27 0 1 0 3 8c3.68-.45 20 9.92 35.6 22.72A4.21 4.21 0 0 0 1651 1113.82ZM1453.15 1829.75a5.65 5.65 0 0 0 .58 0 4.27 4.27 0 0 0 3.66-4.81c-.1-.73-10.05-73.67-17.66-116-2.29-12.77-17.65-26.73-19.39-28.28a4.27 4.27 0 0 0-5.68 6.38c4.13 3.67 15.16 15 16.67 23.41 7.57 42.17 17.49 114.93 17.59 115.66A4.29 4.29 0 0 0 1453.15 1829.75ZM1250.53 1170.5h.25a4.26 4.26 0 0 0 4-4.51c-.06-1-5.85-100.65-2.2-163.14.65-11 1.14-20.08 1.56-27.62 1.95-35.6 2-37.49 7.24-58.26 4.2-3 24.54-9.49 34.47-12.06-2.55 18.82-1.46 48.16 0 87.22.54 14.61 1.16 31.16 1.6 48.4a714 714 0 0 0 14.52 123 4.27 4.27 0 1 0 8.33-1.88A706.31 706.31 0 0 1 1306 1040.3c-.45-17.29-1.06-33.87-1.61-48.5-1.53-41.35-2.74-74 .86-91.25a4.44 4.44 0 0 0-3.32-5.13c-2.72-.65-46.51 10.25-48.59 18.55-5.61 22.43-5.73 24.6-7.71 60.78-.41 7.54-.91 16.57-1.55 27.59-3.69 63 2.14 163.13 2.2 164.14A4.26 4.26 0 0 0 1250.53 1170.5ZM1512.3 1067.21c-1.25-16.68-2.08-33.1-2.49-48.79-1.65-63.71 2-116.65 6.45-142.33-9.68 1.25-30.84 5.32-35.38 7.83-5.75 15.18-10.71 48.89-13.31 90.61-.38 6.06-.38 12-.38 18.32 0 5.41 0 11-.24 17.15a4.34 4.34 0 0 1-4.43 4.1 4.26 4.26 0 0 1-4.1-4.43c.22-6 .23-11.49.23-16.82 0-6.44 0-12.53.39-18.85 2.75-44 7.94-78.31 14.24-94.09.82-2 1.94-4.84 24.78-9.4 3.49-.7 21.07-4.12 24.49-3.09a4.51 4.51 0 0 1 3.08 5.09c-4.74 22.62-9 77.87-7.28 145.69.4 15.56 1.23 31.83 2.47 48.38a4.26 4.26 0 0 1-3.94 4.57l-.32 0A4.28 4.28 0 0 1 1512.3 1067.21Zm-31.85-183Z" style="fill:#56302a"></path>
    <path d="M1380.47 968.65c.71 0 1.43 0 2.15 0 76.74-1.51 98.12-85.51 98.33-86.35a4.27 4.27 0 0 0-8.3-2c-.78 3.2-20.07 78.46-90.19 79.84-.67 0-1.34 0-2 0-62.14 0-74.23-58.36-74.72-60.87a4.27 4.27 0 0 0-8.39 1.62C1297.48 901.54 1311.19 968.65 1380.47 968.65ZM1191 1624.93c14.23 0 18.74-7.31 20.17-12.25 6.76-23.47 14.68-52.64 22.33-80.86 12-44.1 23.28-85.76 29.55-103.64a4.27 4.27 0 0 0-8.06-2.83c-6.37 18.18-17.72 60-29.73 104.23-7.65 28.19-15.56 57.33-22.3 80.74-1.3 4.51-6.15 6.55-14.41 6-22.77-1.5-52.39-20.16-53.18-25.4 1.65-20.46 2-49.89 2.29-78.35.38-34.68.77-70.53 3.61-87.89a1218.69 1218.69 0 0 1 28.22-127.72c2.9-10.69 3.87-14.31 4-16.28h0l-.1-2.26c0-.25 0-.5 0-.75l-.2-4.19v-.08l0-.29a5.59 5.59 0 0 0-.27-1.26c-.35-4.07-.81-9.18-1.36-15.17-3.54-38.63-10.91-119-9.91-192.11.88-64.62 11.55-88.94 29.7-109.12s66.56-36.21 67-36.37a4.27 4.27 0 0 0-2.65-8.12c-2.07.67-51 16.77-70.76 38.78-19.5 21.69-31 47.41-31.88 114.72-1 73.55 6.39 154.23 10 193 1 11.16 1.76 19.23 1.94 23-.1 1.06-1.76 7.15-3.68 14.21a1232 1232 0 0 0-28.4 128.58c-2.94 18-3.32 52.57-3.72 89.17-.32 28.32-.64 57.6-2.26 77.9-1 12.45 33.11 29.75 54.25 33.6A55.38 55.38 0 0 0 1191 1624.93ZM1759.58 1521.4c.77 0 1.24 0 1.34-.05a4.27 4.27 0 1 0-.72-8.5 25.12 25.12 0 0 1-19.19-8.43c-3.08-3.4-6.5-7.09-10.16-11-22.28-24-52.79-56.91-67.94-92-6.92-16-16.22-54.61-16.55-65.84-.25-8.58 5.38-78.14 10-111.11a4.27 4.27 0 0 0-8.46-1.19c-4.79 34.18-10.35 103.55-10.09 112.55.37 12.32 9.68 51.46 17.25 69 15.73 36.4 46.82 69.91 69.51 94.38 3.64 3.92 7 7.58 10.09 11A34 34 0 0 0 1759.58 1521.4ZM1704.19 960.37a4.29 4.29 0 0 0 3.17-1.41c18.63-20.61 81.14-53.31 81.77-53.63a4.27 4.27 0 0 0-4-7.58c-2.62 1.37-64.51 33.75-84.16 55.49a4.28 4.28 0 0 0 3.17 7.13ZM2191 907.46a4.27 4.27 0 0 0 3.46-6.78 587.22 587.22 0 0 0-51.8-60.41 4.27 4.27 0 0 0-6.06 6 577.47 577.47 0 0 1 50.94 59.4A4.27 4.27 0 0 0 2191 907.46ZM1966.48 822.64a4.26 4.26 0 0 0 2.69-1c.44-.36 44.1-35.44 85.57-29.78a4.27 4.27 0 1 0 1.16-8.46c-45.18-6.16-90.23 30.07-92.12 31.62a4.27 4.27 0 0 0 2.7 7.58Z" style="fill:#56302a"></path>
    <path d="M2237,1148.8a4.26,4.26,0,0,0,3.09-7.22c-.3-.31-29.91-31.64-31.38-65.74-.74-17.17-3.52-60.36-6.45-106.09-3.38-52.61-7.2-112.25-6.85-117a4.27,4.27,0,1,0-8.51-.64c-.38,5,2.33,48,6.84,118.24,2.8,43.67,5.7,88.83,6.43,105.91,1.62,37.36,32.44,69.91,33.75,71.28A4.27,4.27,0,0,0,2237,1148.8Z" style="fill:#56302a"></path>
    <path d="M2202.51,857.69c10.17,0,22.92-2,41.6-6.27,3-.68,29.09-7,29.17-17.77,0-4.26-3.43-7.27-10.28-8.95a4.27,4.27,0,1,0-2,8.3,17.53,17.53,0,0,1,3.12,1c-2.61,2.46-11.12,6.61-21.89,9.08-25.61,5.88-39.23,7.26-50.25,5.09a4.27,4.27,0,0,0-1.65,8.38A62.63,62.63,0,0,0,2202.51,857.69Z" style="fill:#56302a"></path>
    <path d="M2280.45,1186.4a52.26,52.26,0,0,0,26.54-7.07c16-9.3,30.92-76.2,23.65-129.33-8.55-62.45-35.47-148.53-53.28-205.49l-4.17-13.35a4.27,4.27,0,0,0-8.16,2.54l4.18,13.36c17.72,56.69,44.51,142.36,53,204.1,7.32,53.43-8.78,114.57-19.48,120.78-21.84,12.67-50.25,4.84-82.15-22.63-30.67-26.42-57.91-65.85-81.94-100.65-17.8-25.76-34.61-50.1-50.29-65.43a4.27,4.27,0,1,0-6,6.11c15.09,14.75,31.68,38.76,49.23,64.18,24.32,35.21,51.89,75.12,83.39,102.26C2241.84,1178.92,2263.58,1186.4,2280.45,1186.4Z" style="fill:#56302a"></path>
    <path d="M1941.83 1520.23c25.11 0 55.1-1.34 90.9-4.68 57.84-5.38 182.88-48.14 204.05-80.72 3.34-5.14 4.25-10.07 2.7-14.64-24.73-73.25-41.83-132.68-50.81-176.62-1.7-8.33-3.91-20.76-6.47-35.15-6.71-37.67-15.9-89.26-27.16-132.55a4.27 4.27 0 0 0-8.27 2.15c11.18 43 20.34 94.37 27 131.9 2.57 14.44 4.79 26.92 6.52 35.36 9.05 44.29 26.23 104 51.08 177.64.68 2 .1 4.38-1.77 7.26-18.36 28.25-137 71.22-197.68 76.87-175.86 16.37-208.15-15.9-208.46-16.23a4.3 4.3 0 0 0-6-.31 4.24 4.24 0 0 0-.43 5.94C1818.08 1497.64 1839 1520.23 1941.83 1520.23ZM1793.74 1420.34a4 4 0 0 0 .6 0 4.27 4.27 0 0 0 3.63-4.83c-3.55-25-24.77-127.81-33.73-170.83a4.27 4.27 0 0 0-8.36 1.74c8.95 42.94 30.12 145.48 33.64 170.29A4.26 4.26 0 0 0 1793.74 1420.34ZM1774.08 1422.7a4.28 4.28 0 0 0 3.46-6.78c-7.22-10-15.31-30.56-23.89-52.37-2.66-6.78-5.41-13.78-8.27-20.82-5.37-13.24-43.27-20.06-50.81-21.29a4.27 4.27 0 0 0-1.38 8.43c19.45 3.18 41.91 10.23 44.28 16.07 2.84 7 5.58 14 8.24 20.73 9.15 23.31 17.06 43.43 24.91 54.26A4.28 4.28 0 0 0 1774.08 1422.7Z" style="fill:#56302a"></path>
    <path d="M1741 1348a4.24 4.24 0 0 0 4-3l23.58-72.39a4.27 4.27 0 0 0-8.12-2.65l-23.58 72.4a4.27 4.27 0 0 0 2.74 5.38A4.4 4.4 0 0 0 1741 1348ZM1908.53 1027.74a4.11 4.11 0 0 0 1.28-.2 4.26 4.26 0 0 0 2.79-5.35c-.16-.51-15.95-51.05-22.15-99.11.37-1.79 6.5-7.9 11.42-12.82 16.46-16.43 44-43.94 41.41-81.57a4.27 4.27 0 0 0-8.52.59c2.34 33.75-22.49 58.54-38.93 74.94-9.07 9.06-14.55 14.53-13.85 19.95 6.3 48.84 22.31 100.07 22.48 100.58A4.27 4.27 0 0 0 1908.53 1027.74ZM1850.41 967.2a5.74 5.74 0 0 0 3.28-1c3.9-2.78 3.22-9.08 2.18-18.6-.47-4.3-1.24-11.36-.54-13.5a23 23 0 0 1 8.32-3.12 4.27 4.27 0 1 0-1.16-8.46 30.41 30.41 0 0 0-12.62 5c-4.21 3.1-3.69 10-2.49 21 .27 2.49.63 5.77.73 8.27-12.2-9.36-49.25-45.73-56.78-58.18-1.36-2.66-.82-17 3-26.57.83-2.08 6-6.69 10.38-9.69a4.27 4.27 0 0 0-4.86-7c-1.85 1.28-11.22 8-13.45 13.55-4 10.11-6 28.22-2.39 34.16 8.92 14.75 54.2 59.12 63.45 63.5A6.91 6.91 0 0 0 1850.41 967.2Z" style="fill:#56302a"></path>
    <path d="M1952.36 944a5.61 5.61 0 0 0 5-3.28c4.31-8.19 20.81-94.94 12.78-123.6-1.71-6.09-10.67-8.49-24.14-11.45l-1.92-.43c-6-1.34-15 2.68-16.71 3.5a4.27 4.27 0 0 0 3.66 7.72c3.12-1.47 8.84-3.42 11.19-2.88l1.94.43c4.78 1 15.88 3.49 17.82 5.66 6.38 23.54-5.59 93.08-10.68 112.43-1.43-2.59-3.07-5.95-4.34-8.54-6.26-12.8-10.06-20-15.94-19.53a25.59 25.59 0 0 0-10.89 3.34 16.46 16.46 0 0 1-2 1 4.27 4.27 0 0 0 2.79 8.07 22.39 22.39 0 0 0 3.26-1.51 16.86 16.86 0 0 1 6.8-2.29c2.1 1.92 6 9.85 8.34 14.69 5.63 11.52 8.31 16.62 13 16.68ZM2233.07 1829.72a4.27 4.27 0 0 0 4.23-3.73c.21-1.63 20.48-163.09 19.8-232.54-1-98.35-18.13-162.34-18.31-163a4.26 4.26 0 1 0-8.23 2.24c.17.63 17.05 63.66 18 160.81.67 68.88-19.52 229.77-19.73 231.39a4.27 4.27 0 0 0 3.7 4.77ZM1786.62 1829.92a4.27 4.27 0 0 0 4.26-4l18.68-281.82a4.27 4.27 0 1 0-8.52-.57l-18.68 281.83a4.26 4.26 0 0 0 4 4.54ZM1992.86 1825.56c0-1-1.77-96.88-1.78-138.39-1.1-3-10.48-12.63-18.74-20a4.27 4.27 0 1 1 5.68-6.37c14.33 12.78 21.6 21.56 21.6 26.08 0 41.26 1.76 137.56 1.78 138.53a4.27 4.27 0 0 1-4.19 4.35h-.08A4.27 4.27 0 0 1 1992.86 1825.56Zm-1.73-138.25ZM1165.57 1240.77a4.21 4.21 0 0 0 1.21-.17 4.27 4.27 0 0 0 2.89-5.3c-.15-.52-15.33-52.25-35.29-128.31-3.92-14.91-7.17-28.07-10-39.67-11.69-47.3-17.56-71-38.48-92.86-25.69-26.8-119.33-51.66-123.3-52.7a4.27 4.27 0 0 0-4.66 1.78c-1.35 2.05-33.75 50-89.83 31.54-59.26-19.46-54.4-73.88-54.16-76.19a4.29 4.29 0 0 0-3-4.52c-3.07-.94-75.57-23.1-118-23.18h-.13c-45.77 0-85.64 44.87-100.67 64.18-40.66 52.24-109.82 149.92-110.51 150.9a4.27 4.27 0 0 0 7 4.93c.69-1 69.73-98.5 110.28-150.59 11.13-14.29 50.75-60.88 93.93-60.88h.11c36.28.07 97.8 17.57 112.35 21.86-.16 13.72 3.38 63 60.14 81.6a87.68 87.68 0 0 0 27.48 4.58c38.78 0 63.56-28.25 70.3-37 15.9 4.38 94.83 27 116.51 49.6 19.35 20.18 25 43.18 36.36 89 2.87 11.64 6.14 24.83 10.06 39.8 20 76.19 35.22 128 35.37 128.54A4.26 4.26 0 0 0 1165.57 1240.77Z" style="fill:#56302a"></path>
    <path d="M464.73,1265.38c19.74,0,46-6.76,70.75-34.35,25.24-28.1,86.57-106.43,87.19-107.21a4.27,4.27,0,0,0-6.73-5.27c-.61.79-61.76,78.88-86.82,106.78-29.61,33-60.7,34.29-81.58,29.6-16.05-3.6-24.42-42.79-18.72-68.33,9.3-41.72,23.21-62.85,45.13-93.87,23.35-33,44.27-54.58,64-65.84a4.27,4.27,0,0,0-4.24-7.41c-20.79,11.89-42.61,34.24-66.69,68.32-22.54,31.89-36.84,53.63-46.5,96.94-6.09,27.3,2,73.31,25.19,78.52A87.14,87.14,0,0,0,464.73,1265.38Z" style="fill:#56302a"></path>
    <path d="M504.24 1252.5a4.27 4.27 0 0 0 2.38-.73c.69-.46 17.1-11.75 32.48-45.33 15-32.86 29.26-90 29.86-92.38a4.3 4.3 0 0 0-.54-3.32 4.24 4.24 0 0 0-2.78-1.9s-10.49-3-21.67-28.25c-16.45-37.12-6.22-52.86-6.12-53a4.3 4.3 0 0 0-1.05-5.93 4.24 4.24 0 0 0-5.89 1c-.56.76-13.44 19.27 5.25 61.44 9.14 20.62 18.39 28.48 23.62 31.44-3.37 13.08-15.83 59.83-28.45 87.4-14.38 31.41-29.32 41.69-29.47 41.79a4.27 4.27 0 0 0 2.38 7.82ZM1044.74 1236.78a20 20 0 0 0 5-.7c6.5-1.68 17.44-6.87 24.52-12.65 27.23-22.29 42.15-56.46 37.29-72.11a4.27 4.27 0 1 0-8.15 2.53c3.41 11-8.63 41.75-34.55 63-5.89 4.81-15.74 9.57-21.24 11-.3.08-.57.14-.83.19a4.27 4.27 0 0 0-7-4.77c-4.47 4.82-3.44 8.39-2.43 10.09C1038.73 1235.6 1041.31 1236.78 1044.74 1236.78Z" style="fill:#56302a"></path>
    <path d="M1111.11 1405.45c12.63 0 30.71-11.47 32.82-12.84a4.27 4.27 0 0 0-4.64-7.16c-5.32 3.44-21 12.17-29.16 11.42-12.24-1.18-38.31-10.39-49.4-36.8-7.7-18.36-16.81-45-16.44-67.77.13-8.28.5-15.51.86-22.5.72-13.94 1.34-26-.36-40a4.27 4.27 0 0 0-8.48 1c1.61 13.24 1 24.94.31 38.5-.36 7.06-.73 14.36-.87 22.8-.39 24.22 9.09 52.09 17.11 71.2 12.65 30.14 42.45 40.65 56.45 42A17.67 17.67 0 0 0 1111.11 1405.45ZM1807.65 1459.67c3.54 0 7-.9 9.27-3.07a8.41 8.41 0 0 0 2-9.1c-1.22-4.57-7.39-14.62-9.49-17.83a121.94 121.94 0 0 0-12.73-16.48 15.83 15.83 0 0 0-18.87-4.11c-4.54 2.16-11 12.7-10.24 22.28a4.27 4.27 0 1 0 8.51-.66c-.46-6 3.9-12.91 5.51-14a7.38 7.38 0 0 1 8.78 2.21 112.94 112.94 0 0 1 11.82 15.3c4.18 6.39 8 13.65 8.46 15.48l.12.39a2.7 2.7 0 0 1 .12.43c-1.06.67-4.9 1-8.12-.32a4.27 4.27 0 1 0-3.18 7.92A22.13 22.13 0 0 0 1807.65 1459.67Z" style="fill:#56302a"></path>
    <path d="M1819.56,1496.76c4,0,7.86-1.15,10.07-4,2.07-2.61,3.44-7.31-1.76-14.84-8.91-12.9-39.4-42.71-42.85-46.06-3.76-3.65-10.78-4.23-16.08-3.17-6.29,1.26-10.93,4.69-13.08,9.68-1.92,4-1.11,9.85-.08,14a4.27,4.27,0,1,0,8.29-2c-1.2-4.9-.85-7.62-.44-8.46,1.43-3.31,5-4.44,7-4.84,4.09-.81,7.68.16,8.46.91,1.35,1.31,33.18,32.34,41.77,44.79,2,2.89,2.17,4.43,2.07,4.74-.61.72-4.7,1.16-8.4-.29-1.82-.7-3.73-2.22-7.2-5-1.33-1-2.86-2.28-4.69-3.68a4.27,4.27,0,1,0-5.22,6.76c1.79,1.38,3.3,2.57,4.6,3.61,4,3.17,6.4,5.09,9.42,6.25A23,23,0,0,0,1819.56,1496.76Z" style="fill:#56302a"></path>
    <path d="M1806.85,1519.38c-11.2-4.05-29.4-19.86-38.32-28a4.31,4.31,0,0,1-1.32,2,4.25,4.25,0,0,1-6-.49c-2.11-2.47-12.66-15.25-13.74-23.37-.81-5,1.38-12.67,6.46-17,4-3.44,9.28-4.31,14.79-2.46,14,4.7,51.86,47.7,55,51.54,3.89,4.83,4.49,10.89,1.49,15.09-1.13,1.59-4,4.43-9.71,4.43A25.38,25.38,0,0,1,1806.85,1519.38Zm-47.4-60.4a11.77,11.77,0,0,0-3.54,9.23c.38,2.84,3.47,8,6.84,12.72a5.15,5.15,0,0,1,.43-.52,4.26,4.26,0,0,1,6-.1c7.55,7.29,29.54,27.06,40.54,31,4.75,1.71,7.71,1.38,8.45.34.6-.84.31-2.91-1.19-4.78-7-8.69-41.17-45.49-51-48.79a8.94,8.94,0,0,0-2.85-.52A5.49,5.49,0,0,0,1759.45,1459Z" style="fill:#56302a"></path>
    <path d="M1801 1551c-10.46-2.18-31-13.83-40.69-27.9-8.84-10.82-9.06-18.21-9.16-21.61a14.27 14.27 0 0 1 6.08-12.33c3.56-2.51 7.93-3.24 11.35-1.89 11 4.18 37.16 26.72 45.84 36.46 6 6.72 5.12 13 2.3 16.63a13.08 13.08 0 0 1-11 4.65 4.21 4.21 0 0 1 .31 2.68 4.26 4.26 0 0 1-4.17 3.4A4.38 4.38 0 0 1 1801 1551Zm-38.85-54.86a5.92 5.92 0 0 0-2.45 5.34c.06 2.3.22 7.69 7.33 16.34a3.06 3.06 0 0 1 .21.29 48.26 48.26 0 0 0 6.9 7.82 4.27 4.27 0 0 1 5.78-6.29c.12.11 12.19 10.67 21.72 15.63 4 2.07 7.34 1.13 8.34-.16s-.29-3.85-1.93-5.7c-8.5-9.53-33.66-30.81-42.54-34.17a1.65 1.65 0 0 0-.6-.09A5 5 0 0 0 1762.16 1496.17Zm18.14 34.89c-3.43-2.72-5.79-4.78-6-5l0 0A71.65 71.65 0 0 0 1780.3 1531.06ZM1788 1444.76a4.28 4.28 0 0 0 3.52-6.7l-4.31-6.26a4.27 4.27 0 0 0-7 4.84l4.31 6.27A4.28 4.28 0 0 0 1788 1444.76Z" style="fill:#56302a"></path>
    <path d="M1745.47,1517.6a4.28,4.28,0,0,0,2.14-8c-4.18-2.39-10-9.63-12.64-22.11-3.66-17.26-3.73-42.16,37.73-59.14a4.27,4.27,0,1,0-3.23-7.9c-52.85,21.65-45.33,57.14-42.85,68.81,2.69,12.73,9.11,23.37,16.73,27.75A4.3,4.3,0,0,0,1745.47,1517.6Z" style="fill:#56302a"></path>
    <path d="M1754.9 1505.55a4.28 4.28 0 0 0 3.14-7.17l-24.25-26.21a4.27 4.27 0 1 0-6.27 5.8l24.25 26.21A4.24 4.24 0 0 0 1754.9 1505.55ZM1111.46 1715.32a4.28 4.28 0 0 0 3.21-7.08c-9.05-10.36-5.91-21.32 2.06-45.15 1.16-3.46 2.38-7.12 3.63-11 5.59-16.22 11.08-34.07 16.77-54.49a4.27 4.27 0 0 0-8.23-2.29c-5.64 20.26-11.08 38-16.64 54.08-1.27 3.95-2.48 7.58-3.63 11-7.86 23.49-13.05 39-.39 53.48A4.23 4.23 0 0 0 1111.46 1715.32Z" style="fill:#56302a"></path>
    <path d="M1121.56,1740.65a4.21,4.21,0,0,0,2.66-.93,4.26,4.26,0,0,0,.68-6,15.37,15.37,0,0,0-3.65-3.15c-2.18-1.48-3.75-2.55-4.11-8.12-.65-10,2.53-27.52,2.57-27.7a4.27,4.27,0,0,0-8.4-1.54c-.14.76-3.41,18.75-2.7,29.79.64,9.73,5,12.68,7.83,14.63a8.58,8.58,0,0,1,1.78,1.41A4.26,4.26,0,0,0,1121.56,1740.65Z" style="fill:#56302a"></path>
    <path d="M1144.27,1776a4.27,4.27,0,0,0,.76-8.47c-18.15-3.31-18.28-10.22-16.88-24.31.94-14.68,4.07-35.86,4.1-36.07a4.27,4.27,0,0,0-8.45-1.26c-.13.88-3.21,21.74-4.16,36.64-1.54,15.54-.83,28.9,23.86,33.4A5.12,5.12,0,0,0,1144.27,1776Z" style="fill:#56302a"></path>
    <path d="M1182.75,1807.61a9.91,9.91,0,0,0,4.2-.86c3.83-1.75,5-5.71,5.36-7,2.39-8.23-4.48-14.91-11.12-21.37-2-2-4.17-4.06-6-6.15a4.27,4.27,0,0,0-6.4,5.66c2.06,2.33,4.3,4.51,6.46,6.61,4.83,4.7,9.83,9.56,8.87,12.87a3.75,3.75,0,0,1-.72,1.63c-2.37,1.25-16.76-5.38-25.36-9.33-13.57-6.21-6.61-50.59-4.31-65.18a4.27,4.27,0,1,0-8.44-1.32c-5.08,32.32-8,66.42,9.19,74.26C1169.31,1804.23,1177.32,1807.61,1182.75,1807.61Z" style="fill:#56302a"></path>
    <path d="M1201.73,1786.46a9.24,9.24,0,0,0,2.15-.26c10.72-2.41,10.95-13,11.2-25.31a170.74,170.74,0,0,1,1-17.74c1.46-11.84,3.14-21.46,4.48-29.19,1.12-6.41,1.93-11,2.15-14.33,0-12.09-6-25.92-11.23-38.12a174,174,0,0,1-6.79-17.27c-1.74-6.31-2.25-14.48-1.47-23.51a4.27,4.27,0,1,0-8.5-.74c-.89,10.18-.3,19.13,1.76,26.61a179.73,179.73,0,0,0,7.16,18.3c4.94,11.44,10.53,24.41,10.54,34.45-.18,2.54-1,7.22-2,13.15-1.29,7.41-3.06,17.55-4.55,29.61a180,180,0,0,0-1.1,18.6c-.26,12.76-.87,16.33-4.61,17.17-.35.09-.92-.24-1.34-.58-3.8-3.08-7.82-13.63-7.51-23.86,1.73-32.26-1.82-35.32-3.53-36.79a5.42,5.42,0,0,0-4.63-1.24l-.37.1c-5.09,1.53-7.57,7.81-12.67,32-1.71,8.71-4,21.06-3.94,28.34a4.27,4.27,0,0,0,4.27,4.25h0a4.27,4.27,0,0,0,4.25-4.29c0-7.27,2.83-21.81,3.77-26.59.79-3.76,2.65-12.57,4.51-18.91a209.51,209.51,0,0,1-.21,22.78c-.37,12.21,4.31,25.72,10.66,30.86A10.25,10.25,0,0,0,1201.73,1786.46Z" style="fill:#56302a"></path>
    <path d="M1340.91 683.7c.22-6.81-4.16-12.26-10.22-12.45s-10.77 5-11 11.78 4.16 12.27 10.22 12.46S1340.7 690.52 1340.91 683.7ZM1449.24 686.37c.22-6.82-4.16-12.27-10.22-12.46s-10.77 5-11 11.79 4.16 12.26 10.22 12.45S1449 693.18 1449.24 686.37ZM899.86 697.15c2-6.46-.74-12.83-6.48-14.61s-11.62 1.89-13.63 8.35.73 12.83 6.48 14.62S897.84 703.61 899.86 697.15ZM1002.53 729.1c2-6.46-.74-12.83-6.48-14.62s-11.62 1.9-13.63 8.36.73 12.83 6.48 14.62A12.17 12.17 0 0 0 1002.53 729.1ZM1808.66 676.48c0-6.82-4.54-12.12-10.61-12.12s-10.6 5.3-10.6 12.12 4.54 12.13 10.6 12.13S1808.66 683.3 1808.66 676.48ZM1917 676.48c0-6.82-4.55-12.12-10.61-12.12s-10.61 5.3-10.61 12.12 4.55 12.13 10.61 12.13A12.26 12.26 0 0 0 1917 676.48Z" style="fill-rule:evenodd;fill:#56302a"></path>
  </g>
</svg>
