<svg xmlns="http://www.w3.org/2000/svg" viewBox="0 0 500 375" id="Emptywallet">
  <g fill="#000000" class="color000000 svgShape">
    <path d="M337.385 81.257a.5.5 0 0 1-.407-.79c1.431-2.007 2.196-3.276 2.204-3.288a.5.5 0 0 1 .857.515c-.032.053-.79 1.31-2.247 3.353a.5.5 0 0 1-.407.21ZM236.982 157.032a.5.5 0 0 1-.012-1 79.334 79.334 0 0 0 7.696-.57.506.506 0 0 1 .558.434.5.5 0 0 1-.435.558c-2.532.315-5.154.51-7.794.578Zm-7.774-.146-.031-.001a100.9 100.9 0 0 1-7.776-.792.5.5 0 0 1-.425-.565.508.508 0 0 1 .564-.426c2.594.365 5.185.628 7.7.785a.5.5 0 0 1-.032.999Zm23.166-1.794a.5.5 0 0 1-.115-.987 66.567 66.567 0 0 0 7.388-2.198.5.5 0 0 1 .342.94 67.383 67.383 0 0 1-7.5 2.231.476.476 0 0 1-.115.014Zm14.574-5.3a.5.5 0 0 1-.225-.946 62.202 62.202 0 0 0 6.646-3.905.5.5 0 1 1 .559.83 63.592 63.592 0 0 1-6.754 3.967.504.504 0 0 1-.226.054Zm12.866-8.666a.5.5 0 0 1-.328-.877 65.314 65.314 0 0 0 5.512-5.4.5.5 0 1 1 .74.672 66.263 66.263 0 0 1-5.595 5.482.496.496 0 0 1-.329.123Zm10.44-11.491a.5.5 0 0 1-.406-.791 69.187 69.187 0 0 0 4.14-6.52.5.5 0 1 1 .873.488 70.34 70.34 0 0 1-4.2 6.614.498.498 0 0 1-.407.209Zm7.579-13.563a.5.5 0 0 1-.46-.692 60.17 60.17 0 0 0 2.524-7.293.5.5 0 0 1 .965.264 61.223 61.223 0 0 1-2.568 7.414.499.499 0 0 1-.461.307Zm-11.064-3.85-.638-.003a.5.5 0 0 1-.493-.507.522.522 0 0 1 .507-.493l.624.004c.844 0 1.708-.023 2.566-.067a44.583 44.583 0 0 0 4.477-.458.5.5 0 0 1 .153.989 45.492 45.492 0 0 1-4.58.467c-.874.046-1.755.069-2.616.069Zm-8.344-.866a.487.487 0 0 1-.112-.012 24.451 24.451 0 0 1-7.35-2.9.5.5 0 1 1 .523-.854 23.39 23.39 0 0 0 7.05 2.78.5.5 0 0 1-.111.986Zm23.016-1.48a.5.5 0 0 1-.155-.975 53.028 53.028 0 0 0 7.12-2.931.5.5 0 1 1 .445.894 54.169 54.169 0 0 1-7.254 2.989.505.505 0 0 1-.156.024Zm-35.757-6.715a.498.498 0 0 1-.421-.23 16.537 16.537 0 0 1-2.544-7.524.5.5 0 0 1 .454-.542.515.515 0 0 1 .542.454 15.553 15.553 0 0 0 2.39 7.073.5.5 0 0 1-.421.77Zm49.67-.147a.5.5 0 0 1-.277-.916 72.872 72.872 0 0 0 6.192-4.621.5.5 0 1 1 .638.77 73.623 73.623 0 0 1-6.277 4.683.496.496 0 0 1-.276.084Zm-13.562-1.944c-.014 0-.027 0-.041-.002a.5.5 0 0 1-.458-.538 25.03 25.03 0 0 0 .085-2.012 12.73 12.73 0 0 0-.476-3.786 21.904 21.904 0 0 0-.579-1.603.5.5 0 0 1 .928-.375c.224.553.427 1.116.605 1.675a13.7 13.7 0 0 1 .522 4.089c0 .664-.03 1.368-.089 2.092a.499.499 0 0 1-.497.46Zm25.542-7.954a.5.5 0 0 1-.354-.853 94.056 94.056 0 0 0 5.243-5.696.5.5 0 0 1 .763.647 95.165 95.165 0 0 1-5.298 5.756.498.498 0 0 1-.354.146Zm-63.052-4.893a.508.508 0 0 1-.18-.034.5.5 0 0 1-.287-.646 14.935 14.935 0 0 1 4.644-6.456.5.5 0 1 1 .615.787 13.943 13.943 0 0 0-4.325 6.028.5.5 0 0 1-.467.32Zm32.448-1.377a.502.502 0 0 1-.378-.172 23.906 23.906 0 0 0-5.819-4.87.5.5 0 0 1 .512-.86 24.923 24.923 0 0 1 6.062 5.073.5.5 0 0 1-.377.829Zm-13.147-7.797a.448.448 0 0 1-.102-.011 19.603 19.603 0 0 0-7.535-.104.5.5 0 1 1-.185-.983 20.574 20.574 0 0 1 7.922.109.5.5 0 0 1-.1.989ZM213.714 154.727a.542.542 0 0 1-.105-.011q-1.933-.41-3.915-.897a.5.5 0 1 1 .239-.97q1.967.482 3.883.888a.5.5 0 0 1-.102.99Z" fill="#a9a9a9" class="colorf9d95a svgShape"></path>
    <ellipse cx="347.811" cy="68.384" rx="12.215" ry="8.924" transform="rotate(-47.83 347.81 68.384)" fill="#252525" class="color252525 svgShape"></ellipse>
    <circle cx="350.649" cy="57.082" r="5.121" fill="#a9a9a9" class="colorf9d95a svgShape"></circle>
    <circle cx="350.649" cy="57.082" r="1.024" fill="#252525" class="color252525 svgShape"></circle>
    <circle cx="358.778" cy="64.444" r="5.121" fill="#a9a9a9" class="colorf9d95a svgShape"></circle>
    <circle cx="358.778" cy="64.444" r="1.024" fill="#252525" class="color252525 svgShape"></circle>
    <path d="M346.435 60.666a1.864 1.864 0 0 1 .864 2.521c-1.847 3.626-7.056 12.466-15.976 17.277-14.04 7.573-23.773-8.587-17.196-16.615 7.208-8.797 24.261-7.104 32.308-3.183Z" fill="#b0b0b0" class="color6ca8f5 svgShape"></path>
    <path d="M323.392 69.554a.5.5 0 0 1-.288-.91c12.945-9.096 23.635-7.944 24.082-7.89a.5.5 0 0 1 .437.556.494.494 0 0 1-.555.437c-.11-.01-10.776-1.147-23.39 7.716a.495.495 0 0 1-.286.09Z" fill="#ffffff" class="colorffffff svgShape"></path>
    <path d="M355.626 68.992a1.864 1.864 0 0 0-2.594-.612c-3.425 2.196-11.71 8.251-15.617 17.602-6.151 14.72 10.89 22.81 18.23 15.474 8.043-8.04 4.677-24.844-.019-32.464Z" fill="#b0b0b0" class="color6ca8f5 svgShape"></path>
    <path d="M349.552 93.25a.5.5 0 0 1-.436-.746c7.576-13.425 5.394-23.932 5.371-24.036a.5.5 0 0 1 .977-.216c.098.441 2.3 10.963-5.477 24.744a.501.501 0 0 1-.435.254Z" fill="#ffffff" class="colorffffff svgShape"></path>
    <path d="M278.287 234.02 162.894 324.36c-6.623 5.184-14.8 1.807-18.265-7.545l-42.787-115.492c-3.464-9.351-.904-21.135 5.719-26.32l115.393-90.338c6.623-5.185 14.8-1.807 18.265 7.544L284.006 207.7c3.465 9.352.904 21.136-5.719 26.32Z" fill="#5a5a5a" class="color2b8941 svgShape"></path>
    <path d="M164.468 299.795a7.998 7.998 0 0 1-2.214-.314c-3.098-.892-5.692-3.608-7.115-7.45l-32.167-86.824c-2.671-7.209-.527-16.394 4.78-20.475l89.795-69.04a8.565 8.565 0 0 1 7.706-1.674c3.098.891 5.691 3.607 7.115 7.45l32.166 86.823c2.671 7.209.527 16.395-4.78 20.475l-89.795 69.042a9 9 0 0 1-5.491 1.987Zm58.578-185.09a8.025 8.025 0 0 0-4.89 1.78l-89.795 69.04c-4.984 3.833-6.981 12.506-4.452 19.334l32.167 86.824c1.313 3.542 3.665 6.034 6.455 6.837a7.6 7.6 0 0 0 6.819-1.505l89.796-69.042c4.984-3.833 6.98-12.506 4.45-19.334l-32.165-86.824c-1.313-3.542-3.665-6.034-6.454-6.837a6.944 6.944 0 0 0-1.931-.273Z" fill="#ffffff" class="colorffffff svgShape"></path>
    <path d="M164.117 299.873a8.4 8.4 0 0 1-2.498-.378 9.449 9.449 0 0 1-5.954-6.043l-27.534-74.321a16.476 16.476 0 0 1 5.65-18.183l91.473-64.513a8.988 8.988 0 0 1 14.3 4.427l27.534 74.322a16.477 16.477 0 0 1-5.65 18.182l-91.473 64.513a10.173 10.173 0 0 1-5.848 1.994Zm66.988-164.43a9.189 9.189 0 0 0-5.275 1.809l-91.474 64.513a15.423 15.423 0 0 0-5.288 17.018l27.535 74.321a7.994 7.994 0 0 0 12.786 3.958l91.473-64.512a15.421 15.421 0 0 0 5.288-17.018l-27.534-74.322a8.472 8.472 0 0 0-5.313-5.436 7.4 7.4 0 0 0-2.198-.332Z" fill="#ffffff" class="colorffffff svgShape"></path>
    <rect width="209.869" height="159.277" x="117.37" y="146.134" rx="18.057" transform="rotate(-19.912 222.304 225.772)" fill="#979797" class="coloref603f svgShape"></rect>
    <rect width="67.736" height="25.748" x="299.457" y="172.684" rx="8.788" transform="rotate(-19.912 333.325 185.558)" fill="#5a5a5a" class="color2b8941 svgShape"></rect>
    <circle cx="352.417" cy="178.642" r="9.902" fill="#d2d2d2" class="colorf4b1e6 svgShape"></circle>
    <circle cx="215.926" cy="223.326" r="5.082" fill="#252525" class="color252525 svgShape"></circle>
    <circle cx="250.504" cy="209.433" r="5.082" fill="#252525" class="color252525 svgShape"></circle>
    <path d="M216.552 251.944a.5.5 0 0 1-.377-.828c16.645-19.15 46.641-22.4 46.942-22.43a.5.5 0 1 1 .102.994c-.297.03-29.907 3.246-46.29 22.092a.499.499 0 0 1-.377.172Z" fill="#252525" class="color252525 svgShape"></path>
    <path d="m143.012 179.26-18.387 6.66a7.623 7.623 0 0 0-4.571 9.763l6.623 18.286s-7.985-25.9 16.335-34.71ZM260.342 136.76l18.388-6.66a7.623 7.623 0 0 1 9.764 4.57l6.623 18.286s-10.455-25.006-34.775-16.196ZM191.194 312.275l-18.388 6.66a7.623 7.623 0 0 1-9.763-4.57l-6.624-18.286s10.455 25.006 34.775 16.196ZM308.524 269.776l18.387-6.66a7.623 7.623 0 0 0 4.572-9.764l-6.624-18.286s7.985 25.9-16.335 34.71Z" fill="#d2d2d2" class="colorf4b1e6 svgShape"></path>
    <path d="M92.092 224.432c-6.715 1.145-14.37 2.472-19.828 6.869a10.385 10.385 0 0 0-4.168 7.778c-.073 3.57 1.853 6.91 4.227 9.445 4.787 5.11 11.92 7.886 18.697 9.042a42.314 42.314 0 0 0 11.295.453c3.234-.322 7.439-.82 9.785-3.344 2.345-2.525.529-5.578-1.938-7.142-3.453-2.19-7.914-2.11-11.838-1.807-6.547.507-16.33 1.04-19.529 7.966-3.217 6.965 2.71 13.364 7.875 17.267a96.06 96.06 0 0 0 20.829 11.515 138.232 138.232 0 0 0 48.81 10.415q3.214.103 6.43.057a1 1 0 0 0 0-2 139.535 139.535 0 0 1-44.361-6.585 118.72 118.72 0 0 1-19.795-8.318 93.89 93.89 0 0 1-8.944-5.401 28.377 28.377 0 0 1-7.917-7.41c-1.612-2.467-2.414-5.518-1.272-8.348 1.256-3.115 4.428-4.71 7.482-5.586a52.829 52.829 0 0 1 10.841-1.605c3.563-.252 7.831-.386 10.841 1.878 1.12.841 2.206 2.25 1.175 3.577-.933 1.2-2.694 1.737-4.095 2.112a33.614 33.614 0 0 1-10.094.91 37.625 37.625 0 0 1-18.681-5.61c-4.868-3.155-10.586-9.822-6.365-15.678a15.713 15.713 0 0 1 6.721-4.792 50.192 50.192 0 0 1 9.348-2.784c1.66-.354 3.328-.66 5-.945 1.267-.216.73-2.144-.53-1.929ZM430.316 203.78a43.4 43.4 0 0 1-19.075 15.412 40.444 40.444 0 0 1-17.717 2.963c-1.835-.105-4.002-.128-5.686-.951a2.195 2.195 0 0 1-1.464-1.904c.026-1.07 1.088-1.795 1.865-2.37 1.739-1.282 3.828-2.81 6.106-2.659a4.832 4.832 0 0 1 4.118 3.237c.701 2.315-.932 4.392-2.444 5.955-5.885 6.082-14.779 8.012-22.975 7.71-8.95-.33-17.833-3.83-23.323-11.146-.763-1.017-2.5-.021-1.727 1.01 5.685 7.575 14.521 11.45 23.831 12.074 9.405.63 20.033-1.681 26.417-9.117 1.523-1.774 2.716-3.94 2.3-6.353a6.627 6.627 0 0 0-3.59-4.655 7.172 7.172 0 0 0-6.356.124 19.449 19.449 0 0 0-3.366 2.094 8.118 8.118 0 0 0-2.31 2.209 3.768 3.768 0 0 0 1.116 5.025c1.7 1.258 3.952 1.413 5.986 1.604a42.221 42.221 0 0 0 14.124-1.09 45.216 45.216 0 0 0 25.897-18.162c.739-1.058-.994-2.059-1.727-1.01Z" fill="#b0b0b0" class="color6ca8f5 svgShape"></path>
    <circle cx="308.524" cy="301.734" r="6.156" fill="#b0b0b0" class="color6ca8f5 svgShape"></circle>
    <circle cx="336.101" cy="129.641" r="3.547" fill="#b0b0b0" class="color6ca8f5 svgShape"></circle>
    <circle cx="100.298" cy="145.592" r="5.1" fill="#b0b0b0" class="color6ca8f5 svgShape"></circle>
  </g>
</svg>
