<svg xmlns="http://www.w3.org/2000/svg" enable-background="new 0 0 100 100" viewBox="0 0 100 100" id="Pdf">
  <path fill="#000000" d="M76.1,45.3c0.3,0,0.5-0.2,0.5-0.5v-13c0-0.4-0.1-0.9-0.3-1.3c0,0,0-0.1-0.1-0.1
			c-0.1-0.2-0.2-0.3-0.2-0.4c0,0-0.1-0.1-0.1-0.2c-0.1-0.1-0.2-0.3-0.3-0.4c0,0,0-0.1-0.1-0.1l-19-19c0,0-0.1,0-0.1-0.1
			c-0.1-0.1-0.3-0.2-0.4-0.3c0,0-0.1-0.1-0.2-0.1c-0.1-0.1-0.3-0.2-0.4-0.2c0,0-0.1,0-0.1-0.1c-0.4-0.2-0.8-0.3-1.3-0.3H17.5
			c-2,0-3.6,1.6-3.6,3.6v74.3c0,2,1.6,3.6,3.6,3.6h55.6c2,0,3.6-1.6,3.6-3.6v-8.9c0-0.3-0.3-0.6-0.6-0.6h-6c-0.3,0-0.6,0.3-0.6,0.6
			v4.2c0,0.6-0.5,1.2-1.2,1.2H22.2c-0.6,0-1.2-0.5-1.2-1.2V17.6c0-0.6,0.5-1.2,1.2-1.2h27.7c0.3,0,0.6,0.3,0.6,0.6v14.7
			c0,2,1.6,3.6,3.6,3.6h14.7c0.3,0,0.6,0.3,0.6,0.6v8.7c0,0.3,0.2,0.5,0.5,0.5H76.1z" class="color1a1a1a svgShape"></path>
  <path fill="#000000" d="M53.6,58.6c0.1,0.2,0.2,0.5,0.2,0.9c0,0.3,0,0.5-0.1,0.7c-0.1,0.2-0.2,0.4-0.3,0.6
			c-0.1,0.2-0.3,0.3-0.5,0.4c-0.2,0.1-0.5,0.1-0.8,0.1h-0.9v-3.4h0.8c0.2,0,0.4,0,0.7,0c0.2,0,0.4,0.1,0.6,0.2
			C53.3,58.3,53.5,58.4,53.6,58.6z" class="color1a1a1a svgShape"></path>
  <path fill="#000000" d="M65.7,60c-0.1-0.4-0.3-0.8-0.6-1.1s-0.6-0.5-1-0.7c-0.4-0.2-0.9-0.3-1.6-0.3h-1v7.1h1
			c0.6,0,1.1-0.1,1.5-0.2c0.4-0.1,0.7-0.4,1-0.7c0.3-0.3,0.5-0.7,0.6-1.1c0.1-0.5,0.2-1,0.2-1.6C65.8,60.9,65.8,60.4,65.7,60z
			 M65.7,60c-0.1-0.4-0.3-0.8-0.6-1.1s-0.6-0.5-1-0.7c-0.4-0.2-0.9-0.3-1.6-0.3h-1v7.1h1c0.6,0,1.1-0.1,1.5-0.2
			c0.4-0.1,0.7-0.4,1-0.7c0.3-0.3,0.5-0.7,0.6-1.1c0.1-0.5,0.2-1,0.2-1.6C65.8,60.9,65.8,60.4,65.7,60z M84,50h-7.3v0h-7.2v0H42.3
			c-1.2,0-2.1,0.9-2.1,2.1v19c0,0.9,0.5,1.6,1.3,1.9h43.4c0.7-0.3,1.3-1.1,1.3-1.9v-19C86.1,51,85.2,50,84,50z M56,61
			c-0.2,0.5-0.5,0.9-0.9,1.2c-0.4,0.3-0.8,0.6-1.4,0.8c-0.5,0.2-1.2,0.3-1.9,0.3h-0.8v3.3c0,0.1,0,0.2-0.1,0.2
			c0,0.1-0.1,0.1-0.2,0.2c-0.1,0-0.2,0-0.4,0.1c-0.1,0-0.3,0-0.5,0c-0.2,0-0.4,0-0.5,0c-0.2,0-0.3,0-0.4-0.1c-0.1,0-0.2-0.1-0.2-0.2
			c0-0.1-0.1-0.1-0.1-0.2v-9.8c0-0.3,0.1-0.5,0.2-0.7c0.2-0.2,0.4-0.2,0.6-0.2h2.6c0.3,0,0.5,0,0.8,0c0.2,0,0.5,0.1,0.8,0.1
			c0.3,0.1,0.7,0.2,1,0.4c0.3,0.2,0.6,0.4,0.9,0.7c0.3,0.3,0.4,0.6,0.6,1c0.1,0.4,0.2,0.8,0.2,1.2C56.3,60,56.3,60.6,56,61z
			 M68,63.9c-0.3,0.7-0.7,1.3-1.2,1.8c-0.5,0.5-1.1,0.8-1.8,1c-0.7,0.2-1.6,0.3-2.5,0.3h-2.6c-0.2,0-0.4-0.1-0.5-0.2
			c-0.2-0.1-0.2-0.3-0.2-0.6v-9.5c0-0.3,0.1-0.5,0.2-0.6c0.1-0.1,0.3-0.2,0.5-0.2h2.8c1,0,1.8,0.1,2.5,0.3c0.7,0.2,1.3,0.6,1.8,1
			c0.5,0.5,0.8,1,1.1,1.7c0.3,0.7,0.4,1.4,0.4,2.3C68.4,62.3,68.2,63.2,68,63.9z M77.5,57.4c0,0.1-0.1,0.2-0.1,0.3
			c0,0.1-0.1,0.2-0.1,0.2c-0.1,0-0.1,0.1-0.2,0.1h-3.4v2.7h3.2c0.1,0,0.1,0,0.2,0.1s0.1,0.1,0.1,0.2c0,0.1,0.1,0.2,0.1,0.3
			c0,0.1,0,0.3,0,0.4c0,0.2,0,0.3,0,0.4c0,0.1,0,0.2-0.1,0.3c0,0.1-0.1,0.2-0.1,0.2c-0.1,0-0.1,0.1-0.2,0.1h-3.2v3.9
			c0,0.1,0,0.2-0.1,0.2c0,0.1-0.1,0.1-0.2,0.2c-0.1,0-0.2,0.1-0.4,0.1c-0.1,0-0.3,0-0.5,0c-0.2,0-0.4,0-0.5,0c-0.2,0-0.3,0-0.4-0.1
			c-0.1,0-0.2-0.1-0.2-0.2c0-0.1-0.1-0.1-0.1-0.2v-9.8c0-0.3,0.1-0.5,0.2-0.6c0.2-0.1,0.3-0.2,0.5-0.2h5.1c0.1,0,0.2,0,0.2,0.1
			c0,0,0.1,0.1,0.1,0.2c0,0.1,0.1,0.2,0.1,0.3c0,0.1,0,0.3,0,0.4C77.5,57.1,77.5,57.3,77.5,57.4z M65.1,58.9c-0.3-0.3-0.6-0.5-1-0.7
			c-0.4-0.2-0.9-0.3-1.6-0.3h-1v7.1h1c0.6,0,1.1-0.1,1.5-0.2c0.4-0.1,0.7-0.4,1-0.7c0.3-0.3,0.5-0.7,0.6-1.1c0.1-0.5,0.2-1,0.2-1.6
			c0-0.5-0.1-1-0.2-1.4C65.5,59.6,65.3,59.2,65.1,58.9z" class="color1a1a1a svgShape"></path>
</svg>
