<svg id="SvgjsSvg1048" width="288" height="288" xmlns="http://www.w3.org/2000/svg" version="1.1" xmlns:xlink="http://www.w3.org/1999/xlink" xmlns:svgjs="http://svgjs.com/svgjs"><defs id="SvgjsDefs1049"></defs><g id="SvgjsG1050"><svg xmlns="http://www.w3.org/2000/svg" enable-background="new 0 0 64 64" viewBox="0 0 64 64" width="288" height="288"><path fill="#da0000" d="M53,11.5224609h-2.3183594h-9.9648438V7.1933594C40.7167969,5.4326172,39.2841797,4,37.5234375,4h-11.046875
		c-1.7607422,0-3.1933594,1.4326172-3.1933594,3.1933594v4.3291016h-9.9648438H11c-0.5527344,0-1,0.4477539-1,1s0.4472656,1,1,1
		h2.3953857l1.6436768,42.6831055C15.0703125,58.2978516,16.7841797,60,18.859375,60h26.28125
		c2.0751953,0,3.7890625-1.7021484,3.8193359-3.7709961l1.6446533-42.706543H53c0.5527344,0,1-0.4477539,1-1
		S53.5527344,11.5224609,53,11.5224609z M25.2832031,7.1933594C25.2832031,6.5351563,25.8183594,6,26.4765625,6h11.046875
		c0.6582031,0,1.1933594,0.5351563,1.1933594,1.1933594v4.3291016H25.2832031V7.1933594z M46.9609375,56.175293
		C46.9462891,57.1816406,46.1289063,58,45.140625,58h-26.28125c-0.9882813,0-1.8056641-0.8183594-1.8212891-1.8481445
		l-1.6416016-42.6293945h7.8867188h17.4335938h7.8867188L46.9609375,56.175293z" class="svgShape color58595b-0 selectable"></path><path fill="#da0000" d="M32 17.5732422c-.5527344 0-1 .4477539-1 1v34.3354492c0 .5522461.4472656 1 1 1s1-.4477539 1-1V18.5732422C33 18.0209961 32.5527344 17.5732422 32 17.5732422zM21.5244141 17.6142578c-.5517578.0166016-.9853516.4770508-.9697266 1.0292969l1.0244141 34.3349609c.0166016.5419922.4609375.9702148.9990234.9702148.0107422 0 .0205078 0 .03125-.0004883.5517578-.0166016.9853516-.4770508.9697266-1.0292969l-1.0244141-34.3349609C22.5380859 18.03125 22.0917969 17.5893555 21.5244141 17.6142578zM41.390625 53.9482422c.0107422.0004883.0205078.0004883.03125.0004883.5380859 0 .9824219-.4282227.9990234-.9702148l1.0244141-34.3349609c.015625-.5522461-.4179688-1.0126953-.9697266-1.0292969-.5517578-.0249023-1.0136719.4169922-1.0302734.9697266l-1.0244141 34.3349609C40.4052734 53.4711914 40.8388672 53.9316406 41.390625 53.9482422z" class="svgShape color58595b-1 selectable"></path></svg></g></svg>