<svg id="SvgjsSvg1001" width="288" height="288" xmlns="http://www.w3.org/2000/svg" version="1.1" xmlns:xlink="http://www.w3.org/1999/xlink" xmlns:svgjs="http://svgjs.com/svgjs"><defs id="SvgjsDefs1002"></defs><g id="SvgjsG1008" transform="matrix(1,0,0,1,0,0)"><svg xmlns="http://www.w3.org/2000/svg" viewBox="0 0 24 24" width="288" height="288"><path fill="#130F26" fill-rule="evenodd" d="M12.0023 9.64011C10.6704 9.64011 9.59033 10.7195 9.59033 12.0521C9.59033 13.3839 10.6705 14.4641 12.0023 14.4641C13.3341 14.4641 14.4143 13.3839 14.4143 12.0521C14.4143 10.7195 13.3343 9.64011 12.0023 9.64011ZM8.09033 12.0521C8.09033 9.89074 9.84227 8.14011 12.0023 8.14011C14.1624 8.14011 15.9143 9.89074 15.9143 12.0521C15.9143 14.2123 14.1625 15.9641 12.0023 15.9641C9.84212 15.9641 8.09033 14.2123 8.09033 12.0521Z" clip-rule="evenodd" class="svgShape color130f26-0 selectable"></path><path fill="#130F26" fill-rule="evenodd" d="M4.97577 6.59837C6.77017 5.08129 9.25098 4.00011 12.0022 4.00011C14.7529 4.00011 17.2337 5.08044 19.0282 6.59716C20.8033 8.09736 22.0042 10.1141 22.0042 12.0521C22.0042 13.9901 20.8033 16.0068 19.0282 17.5071C17.2337 19.0238 14.7529 20.1041 12.0022 20.1041C9.25098 20.1041 6.77017 19.0229 4.97577 17.5058C3.20099 16.0053 2.00024 13.9886 2.00024 12.0521C2.00024 10.1156 3.20099 8.09887 4.97577 6.59837ZM5.94422 7.74384C4.3705 9.07435 3.50024 10.7086 3.50024 12.0521C3.50024 13.3956 4.3705 15.0299 5.94422 16.3604C7.49832 17.6743 9.64351 18.6041 12.0022 18.6041C14.3606 18.6041 16.5058 17.6749 18.06 16.3614C19.6337 15.0314 20.5042 13.3971 20.5042 12.0521C20.5042 10.7071 19.6337 9.07285 18.06 7.7428C16.5058 6.42927 14.3606 5.50011 12.0022 5.50011C9.64351 5.50011 7.49832 6.42993 5.94422 7.74384Z" clip-rule="evenodd" class="svgShape color130f26-1 selectable"></path></svg></g></svg>